<?xml version="1.0" encoding="UTF-8" standalone="no"?>
<svg
   viewBox="0 0 290.35003 136.05999"
   version="1.1"
   id="svg6750"
   width="290.35004"
   height="136.05998"
   xmlns="http://www.w3.org/2000/svg"
   xmlns:svg="http://www.w3.org/2000/svg">
  <defs
     id="defs6594">
    <style
       id="style6592">
      .cls-1 {
        fill: none;
      }

      .cls-2 {
        fill: #00376c;
      }

      .cls-3 {
        fill: #fff;
      }
    </style>
  </defs>
  <g
     id="Bounding_Box"
     data-name="Bounding Box"
     transform="translate(-5.3022053,-1.5338966)">
    <rect
       class="cls-1"
       width="365.67001"
       height="202.67999"
       id="rect6596"
       x="0"
       y="0" />
  </g>
  <g
     id="Logo_Siegel_Kombi"
     data-name="Logo Siegel Kombi"
     transform="translate(-41.09,-33.309998)">
    <circle
       class="cls-3"
       cx="263.41"
       cy="101.34"
       r="68.029999"
       id="circle6599" />
    <g
       id="g6661">
      <polygon
         class="cls-2"
         points="57.63,79.08 55.9,79.08 55.9,79.93 61.11,79.93 61.11,79.08 59.38,79.08 59.38,75 65.68,75 65.68,79.08 63.97,79.08 63.97,79.93 69.19,79.93 69.19,79.08 67.46,79.08 67.46,70.13 69.19,70.13 69.19,69.27 63.97,69.27 63.97,70.13 65.68,70.13 65.68,74.07 59.38,74.07 59.38,70.13 61.11,70.13 61.11,69.27 55.9,69.27 55.9,70.13 57.63,70.13 "
         id="polygon6601" />
      <path
         class="cls-2"
         d="m 83.72,76.03 v -5.84 h 1.73 v -0.92 h -4.64 v 0.92 h 1.73 v 5.77 c 0,1.87 -1.25,3.21 -2.98,3.21 -1.73,0 -2.82,-1.29 -2.82,-3.18 V 70.2 h 1.75 V 69.28 H 73.25 V 70.2 H 75 v 6.28 c 0,2.17 1.8,3.76 4.27,3.76 2.63,0 4.43,-1.71 4.43,-4.2 z"
         id="path6603" />
      <polygon
         class="cls-2"
         points="92.13,71.83 95.99,80.09 100.16,71.37 100.16,79.08 98.43,79.08 98.43,79.93 103.65,79.93 103.65,79.08 101.92,79.08 101.92,70.2 103.65,70.2 103.65,69.27 100.05,69.27 96.33,77.07 92.69,69.27 89.23,69.27 89.23,70.2 90.96,70.2 90.96,79.08 89.23,79.08 89.23,79.93 93.86,79.93 93.86,79.08 92.13,79.08 "
         id="polygon6605" />
      <path
         class="cls-2"
         d="m 117.07,77.14 c 0,-1.73 -1.27,-2.77 -3.48,-2.84 1.68,0 2.91,-0.99 2.91,-2.38 0,-1.62 -1.25,-2.65 -3.21,-2.65 h -5.63 v 0.85 h 1.73 v 8.95 h -1.73 v 0.85 h 5.95 c 2.19,0 3.46,-1.02 3.46,-2.79 z m -5.93,-6.95 h 1.64 c 1.13,0 1.73,0.65 1.73,1.8 0,1.15 -0.74,1.94 -1.89,1.94 h -1.48 z m 0,8.82 v -4.15 h 1.66 c 1.52,0 2.28,0.74 2.28,2.17 0,1.32 -0.78,1.99 -2.31,1.99 h -1.64 z"
         id="path6607" />
      <path
         class="cls-2"
         d="m 126.25,80.23 c 2.91,0 5.45,-2.63 5.45,-5.65 0,-3.02 -2.54,-5.58 -5.45,-5.58 -2.91,0 -5.49,2.58 -5.49,5.58 0,3 2.54,5.65 5.49,5.65 z m -0.02,-10.27 c 1.94,0 3.51,2.05 3.51,4.64 0,2.59 -1.55,4.66 -3.51,4.66 -1.96,0 -3.48,-2.08 -3.48,-4.68 0,-2.6 1.55,-4.62 3.48,-4.62 z"
         id="path6609" />
      <polygon
         class="cls-2"
         points="137.5,79.08 135.77,79.08 135.77,79.93 143.96,79.93 143.96,77.6 143.13,77.6 143.13,79.01 139.26,79.01 139.26,70.2 140.99,70.2 140.99,69.27 135.77,69.27 135.77,70.2 137.5,70.2 "
         id="polygon6611" />
      <path
         class="cls-2"
         d="m 158.17,74.6 c 0,-2.98 -2.45,-5.33 -5.58,-5.33 h -5.47 v 0.85 h 1.73 v 8.95 h -1.73 v 0.85 h 5.47 c 3.18,0 5.58,-2.28 5.58,-5.33 z m -7.57,4.41 v -8.82 h 1.82 c 2.12,0 3.76,1.94 3.76,4.43 0,2.49 -1.64,4.38 -3.78,4.38 h -1.8 z"
         id="path6613" />
      <polygon
         class="cls-2"
         points="162.97,79.93 168.64,79.93 168.64,79.08 166.68,79.08 166.68,70.2 170.05,70.2 170.05,71.49 170.9,71.49 170.9,68.81 170.05,68.81 170.05,69.27 161.56,69.27 161.56,68.81 160.73,68.81 160.73,71.49 161.56,71.49 161.56,70.2 164.93,70.2 164.93,79.08 162.97,79.08 "
         id="polygon6615" />
      <rect
         class="cls-2"
         x="172.75999"
         y="74.489998"
         width="3.96"
         height="1.4"
         id="rect6617" />
      <path
         class="cls-2"
         d="m 48.65,93.53 h 1.73 v 5.77 c 0,1.87 -1.25,3.21 -2.98,3.21 -1.73,0 -2.82,-1.29 -2.82,-3.18 v -5.79 h 1.75 v -0.92 h -5.24 v 0.92 h 1.75 v 6.28 c 0,2.17 1.8,3.76 4.27,3.76 2.63,0 4.43,-1.71 4.43,-4.2 v -5.84 h 1.73 v -0.92 h -4.64 v 0.92 z"
         id="path6619" />
      <polygon
         class="cls-2"
         points="66.09,93.53 66.09,100.13 59.6,92.61 56.63,92.61 56.63,93.53 58.24,93.53 58.7,94.13 58.7,102.42 56.97,102.42 56.97,103.27 61.61,103.27 61.61,102.42 59.86,102.42 59.86,95.61 66.55,103.46 67.24,103.46 67.24,93.53 68.97,93.53 68.97,92.61 64.33,92.61 64.33,93.53 "
         id="polygon6621" />
      <polygon
         class="cls-2"
         points="72.7,93.53 74.43,93.53 74.43,102.42 72.7,102.42 72.7,103.27 77.92,103.27 77.92,102.42 76.19,102.42 76.19,93.53 77.92,93.53 77.92,92.61 72.7,92.61 "
         id="polygon6623" />
      <polygon
         class="cls-2"
         points="88.94,92.61 88.94,93.53 90.26,93.53 87.35,100.66 84.37,93.53 85.83,93.53 85.83,92.61 81.35,92.61 81.35,93.53 82.48,93.53 86.64,103.55 87.19,103.55 91.32,93.53 92.29,93.53 92.29,92.61 "
         id="polygon6625" />
      <polygon
         class="cls-2"
         points="94.78,103.27 103.04,103.27 103.04,101.13 102.18,101.13 102.18,102.35 98.26,102.35 98.26,98.31 101.21,98.31 101.21,99.47 102.07,99.47 102.07,96.26 101.21,96.28 101.21,97.39 98.26,97.39 98.26,93.53 102.05,93.53 102.05,94.73 102.88,94.73 102.88,92.15 102.02,92.15 102.02,92.61 94.78,92.61 94.78,93.47 96.51,93.47 96.51,102.42 94.78,102.42 "
         id="polygon6627" />
      <path
         class="cls-2"
         d="m 117.87,103.27 v -0.85 h -0.65 c -0.51,0 -0.95,-0.28 -1.34,-0.85 l -2.15,-3.14 c 1.52,-0.28 2.47,-1.41 2.47,-2.95 0,-1.87 -1.2,-2.86 -3.44,-2.86 h -5.45 v 0.92 h 1.73 v 8.88 h -1.73 v 0.85 h 5.21 v -0.85 h -1.73 v -3.83 h 1.13 l 2.47,3.72 c 0.58,0.88 0.76,0.97 1.78,0.97 h 1.68 z m -7.06,-5.61 v -4.13 h 1.62 c 1.2,0 1.85,0.72 1.85,2.01 0,1.29 -0.72,2.12 -1.82,2.12 h -1.64 z"
         id="path6629" />
      <path
         class="cls-2"
         d="m 125.73,97.18 c -0.48,-0.28 -1.04,-0.6 -1.64,-0.95 -0.79,-0.46 -1.04,-0.78 -1.04,-1.38 0,-0.95 0.72,-1.55 1.8,-1.55 0.62,0 1.04,0.12 1.94,0.6 v 1.15 h 0.85 v -2.77 h -0.85 v 0.58 c -0.67,-0.37 -1.34,-0.53 -2.1,-0.53 -1.85,0 -3.3,1.32 -3.3,2.98 0,1.36 0.69,2.17 2.72,3.18 1.91,0.97 2.54,1.57 2.54,2.45 0,0.88 -0.83,1.55 -1.99,1.55 -0.79,0 -1.43,-0.21 -2.35,-0.76 v -1.2 h -0.85 v 2.88 h 0.85 v -0.6 c 0.9,0.51 1.73,0.76 2.61,0.76 1.91,0 3.35,-1.32 3.35,-3.05 0,-1.5 -0.56,-2.24 -2.54,-3.35 z"
         id="path6631" />
      <polygon
         class="cls-2"
         points="137.47,102.42 135.74,102.42 135.74,93.53 137.47,93.53 137.47,92.61 132.26,92.61 132.26,93.53 133.99,93.53 133.99,102.42 132.26,102.42 132.26,103.27 137.47,103.27 "
         id="polygon6633" />
      <polygon
         class="cls-2"
         points="140.44,94.83 141.27,94.83 141.27,93.53 144.64,93.53 144.64,102.42 142.68,102.42 142.68,103.27 148.36,103.27 148.36,102.42 146.4,102.42 146.4,93.53 149.77,93.53 149.77,94.83 150.62,94.83 150.62,92.15 149.77,92.15 149.77,92.61 141.27,92.61 141.27,92.15 140.44,92.15 "
         id="polygon6635" />
      <path
         class="cls-2"
         d="m 155.62,88.53 c -0.65,0 -1.18,0.53 -1.18,1.18 0,0.65 0.53,1.15 1.18,1.15 0.65,0 1.15,-0.53 1.15,-1.15 0,-0.62 -0.53,-1.18 -1.15,-1.18 z"
         id="path6637" />
      <path
         class="cls-2"
         d="m 159.31,103.27 h 3.88 v -0.85 h -0.97 l -4.25,-10.15 h -0.6 l -4.43,10.15 h -0.88 v 0.85 h 3.23 v -0.85 h -1.32 l 1.11,-2.52 h 4.2 l 1.04,2.52 h -1.02 v 0.85 z m -3.83,-4.27 1.75,-4.06 1.68,4.06 h -3.44 z"
         id="path6639" />
      <path
         class="cls-2"
         d="m 159.71,90.86 c 0.62,0 1.16,-0.53 1.16,-1.15 0,-0.62 -0.53,-1.18 -1.16,-1.18 -0.63,0 -1.18,0.53 -1.18,1.18 0,0.65 0.53,1.15 1.18,1.15 z"
         id="path6641" />
      <polygon
         class="cls-2"
         points="165.49,92.61 165.49,92.15 164.66,92.15 164.66,94.83 165.49,94.83 165.49,93.53 168.86,93.53 168.86,102.42 166.9,102.42 166.9,103.27 172.58,103.27 172.58,102.42 170.61,102.42 170.61,93.53 173.98,93.53 173.98,94.83 174.84,94.83 174.84,92.15 173.98,92.15 173.98,92.61 "
         id="polygon6643" />
      <polygon
         class="cls-2"
         points="68.99,118.08 68.99,116.88 74.76,116.88 68.16,126.14 68.16,126.62 77.5,126.62 77.5,124.13 76.67,124.13 76.67,125.7 70.54,125.7 77.18,116.47 77.18,115.96 68.99,115.96 68.99,115.5 68.16,115.5 68.16,118.08 "
         id="polygon6645" />
      <path
         class="cls-2"
         d="m 88.46,116.88 h 1.73 v 5.77 c 0,1.87 -1.25,3.21 -2.98,3.21 -1.73,0 -2.82,-1.29 -2.82,-3.18 v -5.79 h 1.75 v -0.92 H 80.9 v 0.92 h 1.75 v 6.28 c 0,2.17 1.8,3.76 4.27,3.76 2.63,0 4.43,-1.71 4.43,-4.2 v -5.84 h 1.73 v -0.92 h -4.64 v 0.92 z"
         id="path6647" />
      <path
         class="cls-2"
         d="m 108.2,120.99 c 1.68,0 2.91,-0.99 2.91,-2.38 0,-1.62 -1.25,-2.65 -3.21,-2.65 h -5.63 v 0.85 H 104 v 8.95 h -1.73 v 0.85 h 5.95 c 2.19,0 3.46,-1.02 3.46,-2.79 0,-1.77 -1.27,-2.77 -3.48,-2.84 z m -2.45,-4.11 h 1.64 c 1.13,0 1.73,0.65 1.73,1.8 0,1.15 -0.74,1.94 -1.89,1.94 h -1.48 z m 1.64,8.82 h -1.64 v -4.15 h 1.66 c 1.52,0 2.28,0.74 2.28,2.17 0,1.32 -0.78,1.99 -2.31,1.99 z"
         id="path6649" />
      <polygon
         class="cls-2"
         points="124,124.47 123.15,124.47 123.15,125.7 119.23,125.7 119.23,121.66 122.18,121.66 122.18,122.81 123.03,122.81 123.03,119.6 122.18,119.63 122.18,120.74 119.23,120.74 119.23,116.88 123.01,116.88 123.01,118.08 123.84,118.08 123.84,115.5 122.99,115.5 122.99,115.96 115.74,115.96 115.74,116.81 117.47,116.81 117.47,125.77 115.74,125.77 115.74,126.62 124,126.62 "
         id="polygon6651" />
      <path
         class="cls-2"
         d="m 136.85,124.91 -2.15,-3.14 c 1.52,-0.28 2.47,-1.41 2.47,-2.95 0,-1.87 -1.2,-2.86 -3.44,-2.86 h -5.45 v 0.92 h 1.73 v 8.88 h -1.73 v 0.85 h 5.22 v -0.85 h -1.73 v -3.83 h 1.13 l 2.47,3.72 c 0.58,0.88 0.76,0.97 1.78,0.97 h 1.68 v -0.85 h -0.65 c -0.51,0 -0.95,-0.28 -1.34,-0.85 z m -5.08,-3.9 v -4.13 h 1.62 c 1.2,0 1.85,0.72 1.85,2.01 0,1.29 -0.71,2.12 -1.82,2.12 h -1.64 z"
         id="path6653" />
      <polygon
         class="cls-2"
         points="142.01,126.62 150.2,126.62 150.2,124.29 149.37,124.29 149.37,125.7 145.5,125.7 145.5,116.88 147.23,116.88 147.23,115.96 142.01,115.96 142.01,116.88 143.74,116.88 143.74,125.77 142.01,125.77 "
         id="polygon6655" />
      <polygon
         class="cls-2"
         points="153.36,116.88 155.09,116.88 155.09,125.77 153.36,125.77 153.36,126.62 158.58,126.62 158.58,125.77 156.85,125.77 156.85,116.88 158.58,116.88 158.58,115.96 153.36,115.96 "
         id="polygon6657" />
      <polygon
         class="cls-2"
         points="165.47,115.96 162.49,115.96 162.49,116.88 164.11,116.88 164.57,117.48 164.57,125.77 162.84,125.77 162.84,126.62 167.48,126.62 167.48,125.77 165.73,125.77 165.73,118.96 172.42,126.8 173.11,126.8 173.11,116.88 174.84,116.88 174.84,115.96 170.2,115.96 170.2,116.88 171.96,116.88 171.96,123.48 "
         id="polygon6659" />
    </g>
    <g
       id="g6747">
      <g
         id="g6725">
        <g
           id="g6721">
          <path
             class="cls-2"
             d="m 218.77,136.66 c 0.51,-0.39 0.6,-1.15 0.21,-1.66 -0.41,-0.52 -1.15,-0.6 -1.66,-0.21 -0.52,0.4 -0.61,1.14 -0.21,1.66 0.39,0.51 1.14,0.62 1.66,0.21 z"
             id="path6663" />
          <polygon
             class="cls-2"
             points="225.88,138.63 224.69,140.05 225.14,140.44 225.7,139.78 228.88,142.44 220.96,144.49 220.74,144.76 225.89,149.09 227.04,147.71 226.58,147.33 225.86,148.19 222.48,145.35 230.41,143.34 230.64,143.06 226.13,139.27 226.34,139.01 "
             id="polygon6665" />
          <path
             class="cls-2"
             d="m 241.23,149.51 -2.92,-1.62 -0.32,0.58 1.09,0.6 -2.01,3.63 c -0.65,1.18 -1.9,1.58 -2.99,0.98 -1.06,-0.59 -1.32,-1.8 -0.66,-2.99 l 2.02,-3.65 1.11,0.61 0.32,-0.58 -3.3,-1.83 -0.32,0.58 1.1,0.61 -2.19,3.95 c -0.76,1.37 -0.18,2.99 1.37,3.86 1.66,0.92 3.38,0.47 4.25,-1.1 l 2.04,-3.67 1.09,0.6 0.32,-0.58 v 0 z"
             id="path6667" />
          <path
             class="cls-2"
             d="m 249.17,160.03 c 1.53,0.38 2.59,-0.11 2.9,-1.35 0.3,-1.21 -0.41,-2.16 -1.94,-2.59 1.18,0.29 2.2,-0.19 2.44,-1.15 0.28,-1.13 -0.41,-2.07 -1.78,-2.41 l -3.93,-0.98 -0.15,0.6 1.21,0.3 -1.56,6.25 -1.21,-0.3 -0.15,0.6 4.16,1.04 v 0 z m -0.84,-3.98 1.16,0.29 c 1.06,0.27 1.47,0.91 1.22,1.91 -0.23,0.92 -0.89,1.25 -1.96,0.98 l -1.14,-0.29 0.72,-2.9 v 0 z m 0.81,-3.25 1.14,0.29 c 0.79,0.2 1.1,0.75 0.89,1.56 -0.21,0.82 -0.85,1.22 -1.66,1.02 l -1.03,-0.26 0.65,-2.61 v 0 z"
             id="path6669" />
          <polygon
             class="cls-2"
             points="257.56,161.37 263.51,161.57 263.56,160.03 262.95,160.01 262.91,160.89 260.09,160.79 260.19,157.89 262.32,157.96 262.29,158.79 262.9,158.81 262.99,156.5 262.37,156.5 262.34,157.3 260.22,157.22 260.32,154.45 263.04,154.55 263.01,155.41 263.61,155.43 263.67,153.57 263.05,153.55 263.04,153.88 257.83,153.7 257.81,154.31 259.06,154.36 258.83,160.8 257.59,160.75 "
             id="polygon6671" />
          <path
             class="cls-2"
             d="m 276.92,159.44 -0.46,0.07 c -0.36,0.06 -0.7,-0.09 -1.05,-0.46 l -1.88,-1.99 c 1.05,-0.37 1.6,-1.28 1.42,-2.38 -0.21,-1.33 -1.17,-1.9 -2.76,-1.65 l -3.87,0.61 0.1,0.66 1.23,-0.19 1,6.31 -1.23,0.19 0.1,0.61 3.71,-0.59 -0.1,-0.61 -1.23,0.19 -0.43,-2.72 0.8,-0.13 2.17,2.36 c 0.51,0.56 0.65,0.6 1.37,0.49 l 1.2,-0.19 -0.1,-0.61 v 0 z m -6.02,-5.52 1.15,-0.18 c 0.85,-0.13 1.39,0.3 1.54,1.22 0.14,0.9 -0.27,1.59 -1.06,1.71 l -1.16,0.18 -0.47,-2.94 v 0 z"
             id="path6673" />
          <polygon
             class="cls-2"
             points="283.08,157.35 281.91,157.79 282.13,158.37 287.64,156.26 287.04,154.69 286.48,154.9 286.84,155.85 284.24,156.85 281.96,150.93 283.13,150.48 282.89,149.86 279.38,151.2 279.62,151.82 280.78,151.38 "
             id="polygon6675" />
          <polygon
             class="cls-2"
             points="294.73,151.62 293.67,152.26 290.37,146.78 291.44,146.14 291.1,145.57 287.88,147.5 288.22,148.07 289.29,147.43 292.59,152.91 291.52,153.55 291.83,154.08 295.05,152.14 "
             id="polygon6677" />
          <polygon
             class="cls-2"
             points="299.08,139.31 299.54,139.79 300.46,138.93 303.7,142.41 296.59,141.63 295.03,143.09 295.48,143.58 296.33,142.79 296.87,142.87 300.93,147.23 300.02,148.08 300.44,148.53 302.88,146.26 302.46,145.81 301.54,146.67 298.2,143.09 305.57,143.93 305.94,143.59 301.07,138.37 301.98,137.52 301.53,137.03 "
             id="polygon6679" />
          <path
             class="cls-2"
             d="m 309.26,133.04 c -0.53,-0.37 -1.28,-0.24 -1.65,0.29 -0.38,0.54 -0.24,1.28 0.29,1.65 0.54,0.38 1.27,0.25 1.65,-0.29 0.37,-0.52 0.25,-1.27 -0.29,-1.65 z"
             id="path6681" />
          <polygon
             class="cls-2"
             points="213.05,120.95 213.55,122.08 214.12,121.83 212.59,118.4 212.03,118.65 212.54,119.78 206.65,122.41 206.14,121.27 205.58,121.52 207.11,124.95 207.67,124.7 207.17,123.57 209.76,122.42 211.61,126.56 209.01,127.72 208.51,126.58 207.94,126.83 209.47,130.26 210.03,130.01 209.53,128.87 215.41,126.25 215.92,127.39 216.48,127.14 214.95,123.71 214.39,123.96 214.9,125.1 212.21,126.29 210.37,122.15 "
             id="polygon6683" />
          <path
             class="cls-2"
             d="m 202.46,106.31 0.52,3.3 0.66,-0.1 -0.19,-1.23 4.1,-0.65 c 1.33,-0.21 2.42,0.53 2.62,1.75 0.19,1.2 -0.6,2.15 -1.95,2.36 l -4.12,0.65 -0.2,-1.25 -0.66,0.1 0.59,3.72 0.66,-0.1 -0.2,-1.25 4.46,-0.71 c 1.54,-0.24 2.47,-1.7 2.19,-3.46 -0.3,-1.87 -1.71,-2.96 -3.49,-2.68 l -4.15,0.66 -0.19,-1.23 -0.66,0.1 v 0 z"
             id="path6685" />
          <polygon
             class="cls-2"
             points="210.52,90.17 210.36,91.4 204.02,90.62 204.17,89.38 203.51,89.3 203.19,91.88 208.44,95.21 202.55,97.13 202.25,99.61 202.9,99.69 203.06,98.45 209.4,99.23 209.25,100.47 209.86,100.54 210.27,97.23 209.66,97.15 209.51,98.39 204.33,97.76 210.57,95.73 204.71,91.98 210.21,92.65 210.06,93.89 210.67,93.97 211.13,90.24 "
             id="polygon6687" />
          <path
             class="cls-2"
             d="m 214.05,81.41 c 0.57,-1.47 0.21,-2.59 -0.98,-3.05 -1.16,-0.45 -2.19,0.14 -2.8,1.61 0.43,-1.13 0.08,-2.21 -0.85,-2.57 -1.08,-0.42 -2.1,0.15 -2.61,1.47 l -1.45,3.78 0.57,0.22 0.45,-1.16 6.02,2.31 -0.45,1.16 0.57,0.22 1.54,-4 v 0 z m -4.05,0.35 0.43,-1.12 c 0.39,-1.02 1.09,-1.35 2.05,-0.98 0.88,0.34 1.13,1.04 0.74,2.06 l -0.42,1.1 -2.79,-1.07 v 0 z m -3.13,-1.2 0.42,-1.1 c 0.29,-0.76 0.88,-1 1.66,-0.7 0.79,0.3 1.11,1 0.81,1.77 l -0.38,0.99 -2.51,-0.97 v 0 z"
             id="path6689" />
          <path
             class="cls-2"
             d="m 219.4,71.99 c 1.2,-1.71 0.7,-4.3 -1.09,-5.54 -1.75,-1.23 -4.34,-0.81 -5.54,0.9 -1.22,1.74 -0.74,4.3 1.02,5.54 1.8,1.26 4.38,0.84 5.6,-0.9 v 0 z m -6.06,-4.23 c 0.8,-1.14 2.66,-1.22 4.18,-0.15 1.54,1.08 2.11,2.84 1.3,3.99 -0.8,1.14 -2.66,1.2 -4.2,0.12 -1.51,-1.06 -2.08,-2.82 -1.28,-3.96 z"
             id="path6691" />
          <polygon
             class="cls-2"
             points="225.06,63.84 224.17,64.7 224.6,65.14 228.84,61.05 227.67,59.84 227.24,60.26 227.94,60.99 225.94,62.92 221.53,58.36 222.43,57.5 221.97,57.02 219.27,59.63 219.73,60.1 220.62,59.24 "
             id="polygon6693" />
          <path
             class="cls-2"
             d="m 231.61,58.83 3.34,-2.09 c 1.94,-1.21 2.54,-3.52 1.38,-5.38 -1.14,-1.82 -3.53,-2.32 -5.44,-1.12 l -3.34,2.09 0.33,0.52 1.06,-0.66 3.42,5.46 -1.06,0.66 0.33,0.52 v 0 z m 1.77,-1.89 -3.36,-5.38 1.11,-0.69 c 1.3,-0.81 3.04,-0.25 3.98,1.27 0.95,1.52 0.67,3.3 -0.64,4.12 l -1.1,0.69 v 0 z"
             id="path6695" />
          <polygon
             class="cls-2"
             points="246.03,45.13 246.62,44.93 245.99,43.11 245.41,43.31 245.52,43.62 239.74,45.61 239.63,45.3 239.06,45.49 239.69,47.31 240.26,47.12 239.95,46.24 242.25,45.45 244.33,51.5 242.99,51.95 243.19,52.53 247.06,51.21 246.86,50.63 245.52,51.08 243.44,45.04 245.73,44.25 "
             id="polygon6697" />
          <polygon
             class="cls-2"
             points="254.53,44.94 251.41,45.51 251.63,46.75 254.75,46.19 "
             id="polygon6699" />
          <path
             class="cls-2"
             d="m 267.74,41.25 -3.34,-0.06 v 0.67 c 0,0 1.23,0.02 1.23,0.02 l -0.07,4.15 c -0.02,1.35 -0.94,2.29 -2.18,2.27 -1.21,-0.02 -2.01,-0.97 -1.99,-2.33 l 0.07,-4.17 1.26,0.02 v -0.66 c 0,0 -3.76,-0.07 -3.76,-0.07 v 0.66 c 0,0 1.25,0.02 1.25,0.02 l -0.08,4.52 c -0.03,1.56 1.25,2.73 3.02,2.76 1.89,0.03 3.21,-1.17 3.24,-2.97 l 0.07,-4.2 1.24,0.02 v -0.66 h 0.01 z"
             id="path6701" />
          <polygon
             class="cls-2"
             points="279.47,43.48 279.29,44.12 280.51,44.44 279.28,49.03 276.18,42.6 274.11,42.04 273.94,42.68 275.06,42.98 275.27,43.49 273.73,49.24 272.52,48.92 272.36,49.52 275.59,50.38 275.75,49.79 274.53,49.46 275.8,44.73 278.99,51.43 279.47,51.56 281.32,44.66 282.52,44.98 282.69,44.34 "
             id="polygon6703" />
          <polygon
             class="cls-2"
             points="288.7,54.95 287.6,54.37 290.6,48.72 291.7,49.3 292.01,48.72 288.7,46.96 288.39,47.54 289.49,48.13 286.49,53.77 285.39,53.19 285.1,53.73 288.41,55.49 "
             id="polygon6705" />
          <polygon
             class="cls-2"
             points="298.33,52.71 295.76,50.77 295.36,51.3 296.01,51.79 294.06,59.35 294.38,59.59 301.09,55.62 301.65,56.04 302.05,55.51 300.12,54.06 299.72,54.59 300.48,55.16 295.72,58 297.1,52.61 297.93,53.24 "
             id="polygon6707" />
          <polygon
             class="cls-2"
             points="300.22,64.37 304.2,68.79 305.35,67.76 304.94,67.3 304.29,67.89 302.4,65.79 304.56,63.85 305.98,65.43 305.36,65.98 305.77,66.44 307.49,64.9 307.07,64.45 306.47,64.98 305.05,63.4 307.11,61.55 308.93,63.57 308.29,64.15 308.69,64.59 310.07,63.35 309.66,62.89 309.42,63.12 305.93,59.24 305.47,59.65 306.3,60.58 301.52,64.89 300.68,63.96 "
             id="polygon6709" />
          <path
             class="cls-2"
             d="m 312.67,83.64 c -0.15,0.73 -0.14,1.35 0.06,1.96 0.43,1.31 1.65,2 2.83,1.61 1.03,-0.33 1.41,-0.88 1.72,-2.48 0.08,-0.39 0.18,-0.84 0.28,-1.33 0.14,-0.64 0.31,-0.89 0.72,-1.02 0.65,-0.21 1.22,0.15 1.46,0.89 0.14,0.43 0.15,0.74 0.02,1.46 l -0.79,0.26 0.19,0.58 1.89,-0.62 -0.19,-0.58 -0.39,0.13 c 0.1,-0.54 0.07,-1.03 -0.1,-1.56 -0.41,-1.26 -1.63,-1.97 -2.77,-1.6 -0.93,0.3 -1.33,0.96 -1.57,2.57 -0.24,1.53 -0.51,2.09 -1.11,2.28 -0.62,0.2 -1.24,-0.22 -1.5,-1.01 -0.18,-0.54 -0.18,-1.02 0,-1.78 l 0.82,-0.27 -0.19,-0.58 -1.97,0.64 0.19,0.58 0.41,-0.13 v 0 z"
             id="path6711" />
          <polygon
             class="cls-2"
             points="315.77,95.98 315.59,94.74 321.92,93.85 322.1,95.09 322.76,94.99 322.23,91.28 321.58,91.37 321.75,92.6 315.42,93.49 315.24,92.26 314.64,92.35 315.16,96.06 "
             id="polygon6713" />
          <polygon
             class="cls-2"
             points="321.33,106.86 321.31,107.48 323.23,107.54 323.26,106.93 322.92,106.92 323.14,100.81 323.47,100.82 323.49,100.23 321.57,100.16 321.54,100.76 322.47,100.79 322.39,103.21 316,102.99 316.05,101.58 315.43,101.56 315.29,105.64 315.9,105.66 315.95,104.25 322.34,104.47 322.26,106.89 "
             id="polygon6715" />
          <path
             class="cls-2"
             d="m 313.49,118.08 0.17,-0.69 7.83,-1.2 0.1,-0.42 -6.32,-4.86 0.15,-0.61 -0.6,-0.15 -0.56,2.26 0.6,0.15 0.22,-0.9 1.57,1.19 -0.73,2.93 -1.94,0.29 0.18,-0.71 -0.6,-0.15 -0.67,2.71 0.59,0.16 v 0 z m 9.26,0.68 c 0.48,0.12 0.97,-0.18 1.08,-0.64 0.12,-0.48 -0.17,-0.97 -0.65,-1.09 -0.46,-0.11 -0.95,0.18 -1.07,0.66 -0.12,0.46 0.18,0.95 0.64,1.06 v 0 z m 0.71,-2.85 c 0.48,0.12 0.97,-0.18 1.08,-0.64 0.12,-0.47 -0.18,-0.97 -0.65,-1.08 -0.46,-0.12 -0.95,0.18 -1.07,0.66 -0.11,0.46 0.18,0.95 0.64,1.06 z m -6.24,-2.63 2.53,1.93 -3.13,0.47 z"
             id="path6717" />
          <polygon
             class="cls-2"
             points="314.56,129.35 314.3,129.91 316.04,130.72 316.3,130.17 316,130.03 318.59,124.48 318.89,124.63 319.14,124.08 317.39,123.27 317.14,123.81 317.98,124.2 316.96,126.4 311.16,123.7 311.76,122.42 311.2,122.16 309.48,125.86 310.04,126.12 310.63,124.84 316.43,127.55 315.4,129.74 "
             id="polygon6719" />
        </g>
        <path
           class="cls-2"
           d="m 311.28,79.12 -0.23,-0.4 c -0.18,-0.32 -0.16,-0.69 0.06,-1.14 l 1.21,-2.45 c 0.71,0.86 1.75,1.05 2.72,0.51 1.17,-0.66 1.37,-1.76 0.58,-3.16 l -1.92,-3.42 -0.58,0.32 0.61,1.09 -5.57,3.13 -0.61,-1.09 -0.54,0.3 1.84,3.27 0.53,-0.3 -0.61,-1.09 2.4,-1.35 0.4,0.71 -1.46,2.86 c -0.35,0.67 -0.34,0.82 0.02,1.46 l 0.6,1.06 0.54,-0.3 v 0 z m 3.08,-7.56 0.57,1.01 c 0.42,0.75 0.2,1.41 -0.61,1.87 -0.8,0.45 -1.58,0.3 -1.97,-0.4 l -0.58,-1.03 2.59,-1.46 v 0 z"
           id="path6723" />
      </g>
      <g
         id="g6745">
        <path
           class="cls-2"
           d="m 276.04,76.84 c -0.06,-0.03 -1.54,-0.66 -1.75,-0.71 -0.1,-0.02 -0.85,-0.54 -1.39,-0.92 -0.64,-0.45 -0.93,-0.64 -1,-0.66 -0.12,-0.03 -0.78,-0.35 -1.11,-0.51 l -1.65,-1.06 -1.65,-1.21 c 0,0 -0.32,-0.25 -0.68,-0.34 -0.01,0 -1,-0.36 -2.26,-0.24 -0.76,0.1 -2.75,0.35 -2.83,0.35 -0.09,0 -2.02,0.39 -2.15,0.47 -0.02,0.01 -1.58,0.99 -2.08,1.29 h -0.02 c 0,0 -0.2,1.14 -0.2,1.14 l 0.13,-0.13 c 0,0 1.36,-1.34 2.63,-1.73 0.03,0 2.75,-0.65 4.64,-0.55 0.02,0 1.94,0.04 3.34,1.08 l 1.25,1.04 1.82,0.95 c 0,0 1.37,1.1 4.38,2.32 0.02,0 1.63,0.62 2.54,1.52 l 0.08,0.08 0.02,-0.11 c 0.16,-0.88 -1.96,-2.02 -2.05,-2.07 z"
           id="path6727" />
        <path
           class="cls-2"
           d="m 283.6,85.55 -0.3,-1.77 -0.2,-1.06 -0.35,-1.21 c -0.42,-1.53 -1.05,-2.56 -1.86,-3.62 -0.01,-0.03 -0.3,-0.68 -1.44,-1.66 -0.09,-0.08 -0.2,-0.18 -0.32,-0.29 -0.4,-0.38 -1.01,-0.95 -1.81,-1.41 -0.19,-0.12 -1.92,-1.16 -2.03,-1.2 -0.04,-0.01 -0.15,-0.05 -0.29,-0.1 -0.35,-0.13 -0.88,-0.32 -1.03,-0.35 -0.39,-0.1 -0.83,-0.16 -1.1,-0.19 l 0.2,-0.06 -0.54,0.03 v 0.02 c 0,0 -0.06,0.05 -0.06,0.1 0,0.09 0.11,0.22 0.87,0.42 0.18,0.05 1.8,0.65 1.8,0.65 0.02,0.01 1.95,1.18 2.27,1.39 0.02,0.01 1.56,1.17 2.57,2.7 0.01,0.02 1.32,1.69 2.05,4.69 l 0.93,2.6 1,1.79 -0.35,-1.46 z"
           id="path6729" />
        <path
           class="cls-2"
           d="m 286.46,93.2 c -0.09,-0.71 -0.21,-1.59 -0.3,-2.11 -0.12,-0.76 -0.57,-2.15 -0.96,-2.8 -0.37,-0.63 -1.23,-1.24 -1.26,-1.27 l -0.17,-0.12 0.67,1.57 c 0,0 0.83,1.7 1.32,5.74 l -0.33,3.56 -0.38,1.3 c -0.13,1.23 -0.13,1.24 -0.06,1.25 h 0.03 c 0,0 0.02,-0.01 0.02,-0.01 0.03,-0.03 0.84,-0.78 1.04,-1.67 0.01,-0.06 0.29,-1.46 0.33,-1.79 0,-0.02 0.26,-2.11 0.17,-2.76 -0.03,-0.2 -0.07,-0.52 -0.12,-0.88 z"
           id="path6731" />
        <path
           class="cls-2"
           d="m 292.45,112.56 c -0.68,-0.55 -0.5,-1.15 -0.49,-1.19 l 0.22,-2.56 c 0.02,-1.27 -0.53,-2.34 -0.53,-2.34 -0.18,-0.61 -1.13,-1.05 -1.18,-1.07 -0.56,-0.12 -1.33,-0.13 -1.62,-0.13 h -0.12 c -1.5,0.09 -1.91,0.31 -2.11,0.42 -0.09,0.05 -0.11,0.05 -0.16,0.04 0,-0.02 0.03,-0.12 0.06,-0.2 0.09,-0.22 0.23,-0.59 0.15,-1.06 -0.32,-0.85 -0.3,-1.73 -0.3,-1.86 l 1.12,-1.58 c 1.56,-2.77 1.32,-6.17 1.31,-6.2 -0.4,-5.83 -1.52,-9.01 -1.53,-9.04 -1.6,-5.18 -4.06,-9.86 -4.09,-9.91 -3.16,-5.09 -10.01,-6.08 -10.07,-6.09 -3.34,-0.68 -9.14,-0.44 -9.2,-0.44 -2.98,0.23 -4.71,0.98 -4.72,0.99 -0.03,0.01 -2.68,1.05 -3.79,2.81 -0.02,0.04 -0.18,0.43 -0.26,0.73 -0.21,0.17 -1.1,0.74 -2.36,-0.09 -1.12,-0.5 -1.31,-2.69 -1.31,-2.73 0,0 -0.28,-0.8 -1.11,-0.82 -2.73,-0.41 -4.26,0.6 -4.28,0.62 -0.06,0.05 -1.44,1.12 -1.9,2.22 -0.26,0.03 -1.74,0.28 -3.31,2.66 l -1.35,1.62 -1.81,1.58 v 0.02 c -0.04,0.06 -0.76,1.45 -0.31,4.18 0.06,0.24 0.58,0.63 1.6,1.2 0.02,0.01 0.03,0.02 0.05,0.03 0.17,0.27 0.15,3.12 -0.25,3.8 -0.03,0.05 -0.53,1.3 -0.62,1.54 l -0.64,1.05 c -0.06,0.05 -0.38,0.4 -0.36,1.39 v 0.82 c 0,0 -0.1,1.18 -0.52,1.73 l -1.3,1.75 -1.17,1.72 c 0,0 -0.77,1.42 -0.99,1.72 -0.05,0.06 -0.11,0.14 -0.2,0.24 -0.32,0.37 -0.81,0.94 -0.89,1.6 0,0.04 -0.03,0.93 0.57,1.53 0.34,0.34 0.81,0.51 1.39,0.51 h 0.08 l 0.61,-0.02 c 0,0 0,0.03 0.02,0.04 0,0.1 0.02,0.34 0.03,0.5 l 0.06,0.52 -0.06,1.06 c 0,0 -0.23,0.88 0.02,1.29 0,0 0.26,0.26 0.24,0.5 l -0.14,0.51 -0.11,0.34 c -0.02,0.1 -0.19,0.95 0.19,1.12 l 0.48,0.25 c 0,0 0.6,0.54 0.33,1.07 l -0.46,0.81 c 0,0 -0.45,0.52 -0.54,1.16 0,0.02 -0.31,1.51 0.54,2.79 0.59,0.89 1.59,1.47 2.96,1.72 l 2.66,0.33 2.95,0.54 c 0,0 0.82,0.22 0.8,1.27 l -0.03,0.44 c 0,0 0.05,0.78 0.41,1.44 l 0.65,1.41 0.7,1.28 0.7,1.7 c 0,0 0.6,1.53 0.58,3.36 l -0.13,3.48 v 0.06 c 0,0 0.96,0.02 0.96,0.02 h 0.06 l 0.05,-4.84 c 0,0 -0.23,-1.89 -1,-3.3 l -0.59,-1.23 -0.88,-1.52 c 0,0 -0.63,-1.2 -0.75,-2.86 l 0.03,-0.95 c 0.27,-0.09 1.88,-0.63 3.43,-1.35 0.18,-0.08 2.69,-1.73 3.67,-2.46 1.99,-1.68 2.53,-2.13 2.65,-2.27 0,0 0,0 0,0 v 0 c 0.2,-0.16 1.63,-1.37 2.13,-2.16 h 0.43 c 0,0 0.03,-0.02 0.04,-0.02 0.1,0 0.18,0.03 0.26,0.1 0.39,0.34 0.45,1.39 0.45,1.41 l 1.93,8.5 -2.44,3.64 -2.61,6.1 -2.08,7.42 -0.02,0.07 h 1.38 v -0.06 c 0.08,-6.02 4.7,-14.29 4.75,-14.36 l 4.36,-6.04 4.92,-5.36 4.29,-4.48 c 0.14,-0.1 3.51,-2.37 3.9,-2.7 0.1,-0.06 0.2,-0.07 0.29,-0.03 0.25,0.11 0.37,0.57 0.38,0.59 0.41,0.79 0.57,1.57 0.58,1.58 0.41,1.29 0.28,1.72 0.17,1.85 -0.07,0.08 -0.16,0.08 -0.15,0.08 v 0 c 0,0 0,0 0,0 -1.48,0.2 -2.16,1.3 -2.16,1.31 -0.84,1.33 -0.62,2.85 -0.51,3.35 -0.02,0.03 -0.03,0.06 -0.04,0.09 -0.08,0 -0.17,-0.01 -0.25,-0.01 -1.79,0 -2.34,1.39 -2.34,1.4 -1.24,2.35 -0.27,4.68 -0.26,4.69 0,0.02 0.31,1.54 0.24,2.64 0,0.18 -0.07,1.72 0.6,2.09 0.5,0.37 0.93,0.48 1.05,0.51 0.07,0.13 0.41,0.71 0.91,0.77 0.05,0 0.1,0.01 0.15,0.01 0.57,0 1.12,-0.42 1.63,-1.25 0.02,-0.04 0.04,-0.07 0.05,-0.07 0.06,-0.06 1.21,-1.11 1.22,-1.11 0,0 0.64,-0.41 1.51,-0.21 0.11,0.02 1.07,-0.05 1.26,-0.06 0.91,-0.05 1.39,-0.73 1.58,-1.08 0.07,0.69 0.41,2.75 2.01,3.29 -0.15,0.27 -0.14,0.68 -0.14,0.75 -0.38,1.64 0.82,2.46 0.83,2.47 2.56,1.56 5.18,0.08 5.2,0.07 1.55,-0.88 1.65,-3.07 1.65,-3.09 0.18,-1.75 -0.02,-2.79 -0.02,-2.8 v -0.02 c -1.39,-2.2 0.02,-3.75 0.03,-3.77 0.49,-0.44 0.83,-1.32 0.99,-2.6 v 0 c 0.19,-2.11 -0.86,-2.87 -0.91,-2.9 z m -1.43,9.2 c 0.6,0.98 0.3,3.11 0.3,3.13 -0.34,1.76 -1.85,2.32 -2.49,2.47 -1.26,0.32 -2.57,0 -3.18,-0.75 -0.34,-0.43 -0.44,-0.97 -0.31,-1.58 0.02,-0.04 0.04,-0.07 0.05,-0.13 0.17,-0.51 0.49,-1.48 2.66,-1.64 0.37,0 1.12,0.63 1.13,1.04 0,0.19 -0.17,0.29 -0.51,0.31 -0.03,0 -0.05,0 -0.08,0 -0.15,0 -0.28,-0.02 -0.29,-0.02 -0.24,0 -0.39,0.07 -0.46,0.18 -0.07,0.11 -0.02,0.24 -0.02,0.24 0,0.02 0.2,0.47 0.96,0.47 0.05,0 0.11,0 0.17,0 0.02,0 0.05,0 0.09,0 0.18,0 0.36,-0.02 0.42,-0.04 0.76,-0.22 0.69,-1.35 0.68,-1.39 -0.04,-0.75 -0.79,-1.19 -0.82,-1.21 l -0.85,-0.48 -0.54,-0.05 -0.93,0.12 c -1.09,0.23 -1.61,1.02 -1.81,1.44 -1.23,-0.99 -1.35,-1.81 -1.35,-1.83 l -0.49,-1.4 c 0.09,-0.16 0.21,-0.39 0.38,-0.7 l 0.44,0.15 c 0,0 1.12,0.26 2.24,0.26 0.15,0 0.3,0 0.44,-0.02 0.11,0 1.26,-0.11 1.3,-0.11 l 0.76,0.04 c 0,0 1.25,0.25 1.69,0.77 l 0.26,0.42 c 0.07,0.2 0.13,0.33 0.13,0.35 z m -17.39,-2.16 v -0.02 c 0,0 -0.02,-0.23 0.18,-0.44 0.21,-0.24 0.59,-0.37 1.11,-0.39 0.03,0 0.67,0.01 0.9,0.58 v 0.02 c 0,0 0.4,0.37 0.46,0.84 -0.21,0.02 -0.96,0.13 -1.59,0.57 -0.45,0.32 -0.75,0.76 -0.93,1.06 -0.16,-0.68 -0.2,-1.39 -0.22,-1.9 l 0.09,-0.3 z m 1.49,1.65 c 0.5,-0.3 1.11,-0.38 1.59,-0.18 l 0.83,0.71 c -0.02,0.31 -0.14,0.85 -0.79,1.23 l -0.02,0.02 c -0.49,0.64 -0.96,0.97 -1.35,0.97 -0.01,0 -0.02,0 -0.04,0 -0.36,-0.02 -0.54,-0.32 -0.55,-0.32 l -0.02,-0.02 c -0.2,-0.13 -0.36,-0.32 -0.5,-0.53 -0.02,-0.43 0.03,-1.37 0.84,-1.87 z m 2.92,0 -0.64,-0.38 c 0,0 -0.15,-0.1 -0.2,-0.25 l -0.62,-1.4 v 0 c -0.03,-0.05 -0.81,-1.02 -1.38,-1.07 h -0.13 c -0.32,0 -0.49,0.02 -0.57,0.04 -0.03,0 -0.05,0 -0.06,0 -0.07,0 -0.6,0.19 -0.85,0.27 h -0.45 c -0.43,-1.05 -0.06,-2.12 0.15,-2.59 0.13,-0.14 0.29,-0.27 0.51,-0.33 0.32,-0.09 0.69,0.02 1.07,0.31 l 1.08,1.12 0.7,0.87 c 0.11,0.18 1.1,1.72 1.44,1.89 v 0 c 0,0 0.07,0.03 0.1,0.03 0.04,0 0.07,-0.02 0.09,-0.04 0.15,-0.17 -0.17,-0.89 -0.45,-1.32 -0.09,-0.14 -0.19,-0.31 -0.31,-0.52 -0.39,-0.66 -0.92,-1.56 -1.48,-2.11 -0.07,-0.07 -0.14,-0.14 -0.21,-0.2 -0.58,-0.58 -1.07,-1.03 -1.86,-1.19 0.59,-0.68 1.46,-0.85 1.9,-0.89 v 0 c 0,0 0.53,0.27 0.53,0.27 l 0.41,0.34 0.5,0.61 0.36,0.53 0.42,1.07 0.24,0.82 0.35,0.74 0.76,1.1 0.02,0.02 c 0.25,0.16 0.5,0.24 0.76,0.24 0.11,0 0.21,-0.02 0.32,-0.04 0.53,-0.14 0.93,-0.62 1.12,-1.01 0.84,-1.68 -1.74,-5.41 -1.95,-5.7 -0.17,-1.64 0.99,-3.27 1.31,-3.7 0.56,-0.01 1.05,-0.05 1.49,-0.1 v 0.24 c 0,0 -0.15,1.14 -0.15,1.14 -0.05,0.18 -0.21,0.66 -0.37,0.79 -0.02,0.03 -0.57,0.82 -0.7,1.65 0,0.07 0,0.7 0.14,0.91 0.56,0.71 1.46,1.88 1.52,2.05 v 0.02 c 0.29,2.21 0.08,2.66 -0.49,3.84 -0.14,0.29 -0.3,0.64 -0.48,1.05 l -0.58,0.57 c -0.54,0.67 -1.85,0.68 -1.86,0.68 l -1.26,-0.1 c -0.07,-0.07 -0.16,-0.16 -0.25,-0.26 z m -1.84,-9.31 c 0.01,-0.75 0.48,-1.78 0.52,-1.87 0.75,-0.87 1.47,-1 1.47,-1 0.36,-0.02 0.62,-0.14 0.81,-0.34 0.36,0.02 0.68,0.03 1.01,0.03 -0.3,0.4 -2.18,2.99 -0.82,4.79 1.02,1.35 2.02,3.18 1.87,3.91 -0.03,0.13 -0.08,0.21 -0.18,0.26 h -0.02 c -0.34,0.39 -0.63,0.55 -0.87,0.49 -0.36,-0.09 -0.49,-0.64 -0.5,-0.66 l -0.54,-1.03 -0.34,-1.15 c -0.07,-0.3 -0.68,-1.1 -0.71,-1.14 l -0.33,-0.39 -0.3,-0.26 -0.43,-0.51 -0.35,-0.27 -0.24,-0.16 c 0,0 -0.05,-0.02 -0.08,-0.03 0,-0.25 0,-0.5 0,-0.68 z m -40.36,-4.2 c 0.12,-0.14 0.33,-0.28 0.58,-0.18 0.08,0.06 0.51,0.38 0.67,0.38 0,0 0.32,0 0.86,-0.04 0.18,0 0.26,-0.08 0.3,-0.15 0.08,-0.14 0.03,-0.33 -0.04,-0.44 -0.05,-0.08 -0.11,-0.12 -0.17,-0.12 v 0 c -0.18,0 -0.75,0.04 -0.75,0.04 h -0.02 c 0,0 -0.02,0.02 -0.02,0.02 0,0 -0.04,0.02 -0.1,0.02 -0.08,-0.01 -0.25,-0.09 -0.49,-0.46 -0.05,-0.09 -0.22,-0.22 -0.35,-0.25 -0.07,-0.02 -0.18,-0.03 -0.37,-0.05 l -0.18,-0.02 c -0.09,0 -0.16,-0.05 -0.2,-0.1 -0.08,-0.11 -0.04,-0.27 -0.04,-0.27 l 0.1,-0.54 c 0.01,-0.06 0.31,-1.3 0,-1.95 0.03,0.02 0.07,0.04 0.12,0.06 l 0.82,0.13 1.05,0.43 c 0,0 0.55,0.2 1.59,-0.46 l 0.03,-0.02 v -0.03 c -0.07,-0.88 -0.89,-2.07 -0.92,-2.12 l -0.05,-0.07 -0.25,0.36 v 0.03 c 0,0 0.23,0.55 0.3,0.73 0.17,0.47 0.22,0.69 0.18,0.78 -0.03,0.06 -0.1,0.08 -0.23,0.12 h -0.04 c -0.32,0.11 -0.92,0.21 -1.28,-0.3 l -0.02,-0.02 c 0,0 -0.65,-0.38 -1.55,-0.51 -0.01,0 -1.08,0.11 -1.37,0.12 -0.52,0.02 -0.86,-0.06 -1.04,-0.24 -0.19,-0.2 -0.17,-0.48 -0.15,-0.76 0,-0.11 0.01,-0.21 0,-0.3 0.09,-0.17 0.95,-1.66 1.6,-2.33 l 0.41,-0.53 1.17,-2 0.95,-1.21 c 0,0 1.09,-1.12 1.06,-2.01 l 0.07,-1.14 v 0 c 0,0 0,-0.02 0,-0.02 0,0 -0.11,-0.61 0.25,-1.28 l 0.51,-0.98 0.53,-1.43 0.35,-1.41 0.17,-1.94 v -0.27 c 0.2,-0.33 0.68,-1.13 0.77,-1.71 0.11,-0.7 0.81,-1.34 1.42,-1.64 0.34,-0.16 0.65,-0.29 0.88,-0.38 0.2,-0.08 0.34,-0.14 0.39,-0.18 h 0.01 c 0,0 0.18,-0.24 0.11,-0.44 -0.05,-0.13 -0.18,-0.21 -0.39,-0.25 0,0 0,0 -0.02,0 -0.16,0 -0.85,0.35 -1.11,0.49 -0.49,0.26 -0.97,0.58 -1.32,0.88 -0.2,0.17 -0.38,0.46 -0.56,0.74 -0.12,0.2 -0.24,0.38 -0.36,0.53 l -0.03,0.03 c -0.18,0.21 -0.28,0.32 -0.52,0.41 -0.66,-0.29 -1.11,-0.67 -1.14,-0.98 0,-0.01 0,-1.1 -0.03,-1.46 -0.02,-0.37 0.02,-1.18 0.46,-1.88 0.15,0.11 0.35,0.19 0.65,0.21 0.07,0 0.14,0 0.21,0 0.94,0 2.23,-0.41 2.95,-1.16 0.55,-0.57 1.42,-0.65 1.96,-0.64 -0.06,0.07 -0.12,0.15 -0.15,0.2 -0.15,0.24 -0.55,1.49 -0.38,1.77 0.04,0.07 0.09,0.18 0.14,0.31 0.15,0.36 0.34,0.81 0.63,0.81 0.04,0 0.08,-0.02 0.11,-0.05 0.08,-0.1 0.04,-0.33 -0.03,-0.67 -0.09,-0.47 -0.21,-1.13 0.03,-1.54 0.72,-1.22 2.13,-2.32 3.15,-2.79 1.31,-0.59 2.28,-0.73 2.87,-0.42 0.49,0.26 1.02,0.85 1.44,1.33 0.2,0.23 0.39,0.44 0.55,0.59 0.29,0.27 0.8,0.38 1.2,0.43 -0.1,0.27 -0.21,0.59 -0.33,0.97 -0.34,-0.03 -0.89,-0.04 -1.46,0.05 -0.52,-0.5 -2.2,-1.98 -3.29,-1.49 -1.17,0.52 -2.06,1.24 -2.37,1.55 -0.2,0.2 -0.54,0.73 -0.49,0.95 0.01,0.05 0.04,0.09 0.09,0.11 0.02,0 0.03,0 0.05,0 0.26,0 0.83,-0.53 1,-0.7 0.01,-0.01 1.35,-1.14 2.17,-1.14 v 0 c 0.67,0 1.59,0.65 1.94,0.95 -0.12,0.05 -0.24,0.1 -0.35,0.17 -0.81,0.51 -1.16,0.9 -1.41,1.18 -0.07,0.08 -0.13,0.15 -0.19,0.21 l -0.05,0.05 c -0.6,0.62 -1.04,0.94 -1.31,0.94 v 0 c -0.3,0 -0.87,-0.28 -1.33,-0.5 -0.23,-0.11 -0.44,-0.21 -0.56,-0.25 -0.3,-0.1 -0.66,-0.04 -1.08,0.17 -0.22,0.11 -0.51,0.32 -0.61,0.57 -0.02,0.04 -0.01,0.07 0.01,0.1 0.08,0.1 0.36,0.1 0.98,0.04 0.15,-0.01 0.28,-0.02 0.35,-0.02 0.18,0 0.77,0.3 1.25,0.54 0.25,0.13 0.49,0.25 0.65,0.32 0.07,0.03 0.15,0.05 0.23,0.05 0.63,0 1.57,-0.76 1.68,-0.86 0.12,-0.1 0.25,-0.27 0.42,-0.5 0.38,-0.5 0.9,-1.18 1.73,-1.62 0.68,-0.35 1.29,-0.3 1.68,-0.19 -0.11,0.28 -0.24,0.61 -0.35,0.88 -0.03,0.12 -0.06,0.23 -0.09,0.35 -0.16,0.1 -0.36,0.24 -0.61,0.49 -1.08,1.04 -2.44,1.74 -3.16,2.07 -0.03,0.02 -0.05,0.02 -0.06,0.03 -0.6,0.38 -2.33,0.02 -2.96,-0.19 -0.06,-0.02 -0.1,0 -0.12,0.02 -0.02,0.02 -0.04,0.05 -0.02,0.12 0.07,0.23 0.58,0.75 1.44,0.9 0,0 0.31,0.05 0.76,0.05 0.71,0 1.8,-0.13 2.66,-0.8 l 1.68,-1.27 c -0.02,0.06 -0.04,0.13 -0.04,0.15 -0.1,0.18 -0.8,1.85 -0.88,2.05 -0.29,1.52 -0.77,2.29 -0.77,2.29 l -4.05,6.19 c -0.47,0.86 -0.51,1.72 -0.4,2.06 0.13,0.4 0.25,0.64 0.69,0.64 0.2,0 0.47,0.02 0.72,0.04 0.21,0.02 0.42,0.04 0.55,0.04 0.02,0 0.04,0 0.06,0 0.62,0 0.67,0.49 0.67,0.5 0,0.07 0.02,1.84 0.04,1.99 0.02,0.18 0.05,1.08 0.05,1.09 0,0 -0.04,0.62 0.73,0.93 0.06,0.11 0.02,0.28 -0.14,0.53 -0.06,0.12 -0.26,1.19 -0.22,1.31 0,0.02 0.01,0.04 0.02,0.06 0.02,0.1 0.06,0.24 0.3,0.35 0.78,0.34 0.79,0.88 0.79,0.9 v 0.02 c 0.11,0.24 -0.37,1.21 -0.69,1.77 -0.51,0.8 -0.28,3.11 -0.26,3.22 0.28,1.12 2.41,1.55 2.51,1.57 2.09,0.09 3.59,0.31 3.62,0.31 l 0.59,-0.02 c -0.06,0.06 -0.11,0.1 -0.17,0.16 l -3.8,3.2 c 0,0 -4.36,4.05 -7.87,4.05 -0.07,0 -0.13,0 -0.2,0 -0.07,0 -0.58,-0.04 -1.08,-0.08 -0.57,-0.05 -0.93,-0.07 -0.96,-0.07 0,0 -0.08,-0.02 -0.17,-0.03 -0.41,-0.08 -1.5,-0.31 -2.46,-0.34 -2.33,0 -3.77,-0.92 -3.94,-2.53 -0.19,-1.14 0.03,-1.7 0.05,-1.77 0.1,-0.11 1.1,-1.23 1.09,-1.72 0,-0.04 -0.23,-1.04 -0.57,-1.33 l -0.02,-0.02 h -0.03 c -0.28,0.08 -0.47,0 -0.58,-0.18 -0.21,-0.34 -0.1,-1.05 0.22,-1.42 z m 52.11,-11.29 c -0.2,3.42 -1.66,4.71 -2.1,5.02 -0.02,0.01 -0.03,0.03 -0.04,0.04 0,0 0,0 0,0.02 -0.08,0.07 -0.17,0.14 -0.26,0.22 -0.31,0.29 -0.65,0.61 -1.22,0.88 -0.1,0.05 -0.2,0.1 -0.3,0.15 -0.09,0.04 -0.18,0.09 -0.29,0.14 -0.28,-0.12 -0.65,-0.31 -0.94,-0.6 0.23,-0.43 0.64,-1.35 0.37,-1.94 -0.24,-0.52 -0.45,-0.83 -0.61,-1.05 -0.07,-0.1 -0.14,-0.2 -0.19,-0.28 -0.05,-0.09 -0.09,-0.42 -0.12,-0.77 -0.07,-0.67 -0.16,-1.5 -0.44,-1.89 -0.57,-0.82 -1.67,-1.64 -2.21,-1.9 -0.28,-0.13 -0.74,-0.1 -1.11,-0.07 -0.24,0.02 -0.51,0.04 -0.57,-0.02 0,-0.87 -0.88,-3.33 -1.71,-4.14 -0.24,-0.24 -1.26,-0.41 -1.68,-0.28 -0.39,0.12 -1.45,0.2 -1.69,-0.16 -0.03,-0.04 -0.05,-0.08 -0.08,-0.12 -0.04,-0.06 -0.07,-0.12 -0.11,-0.19 -0.03,-0.06 -0.07,-0.13 -0.11,-0.19 0,-0.02 -0.03,-0.05 -0.03,-0.06 0,-0.1 -0.99,-3.03 -1.3,-3.93 -0.44,-0.85 -1.04,-1.02 -1.62,-1.19 -0.6,-0.17 -1.47,-0.52 -1.9,-0.83 -0.17,-0.12 -0.25,-0.58 -0.33,-1.06 -0.11,-0.68 -0.25,-1.46 -0.68,-1.88 -0.75,-0.73 -3.76,-1 -3.88,-1.01 -0.07,0 -0.28,-0.03 -0.48,-0.02 0.02,-0.11 0.03,-0.19 0.03,-0.19 l 0.11,-0.94 c 0.27,0.05 0.65,0.09 1.06,0.02 0.64,-0.11 1.81,-0.31 2.66,-0.25 0.62,0.05 1.01,0.48 1.52,1.02 0.14,0.15 0.28,0.3 0.44,0.46 0.32,0.32 0.61,0.88 0.92,1.47 0.42,0.81 0.9,1.73 1.58,2.34 0.94,0.85 2.29,1.42 3.1,1.76 0.2,0.09 0.37,0.15 0.47,0.21 0.28,0.14 0.32,0.34 0.42,0.77 0.06,0.27 0.14,0.63 0.3,1.11 0.47,1.35 1.2,1.98 1.85,2.41 0.38,0.25 1.26,0.56 2.12,0.86 0.83,0.29 1.7,0.59 1.97,0.81 0.29,0.23 0.37,0.68 0.46,1.16 0.07,0.4 0.14,0.81 0.34,1.13 0.28,0.44 0.98,1 1.61,1.5 0.36,0.28 0.69,0.55 0.9,0.76 0.3,0.3 0.45,0.77 0.57,1.11 0.08,0.26 0.13,0.4 0.22,0.43 0,0 0.01,0 0.02,0 0.02,0 0.05,0 0.08,-0.04 0.18,-0.18 0.08,-0.79 -0.13,-1.63 -0.07,-0.3 -0.55,-0.74 -1.1,-1.25 -0.09,-0.08 -0.18,-0.17 -0.28,-0.26 0.26,-0.29 0.61,-0.77 0.65,-1.39 0.06,-0.97 -0.31,-2.39 -0.82,-3.11 -0.51,-0.71 -1.12,-1.49 -2.08,-1.81 -0.22,-0.07 -0.39,-0.12 -0.52,-0.16 -0.45,-0.13 -0.53,-0.16 -0.9,-0.55 -0.47,-0.49 -0.97,-2.77 -1.13,-4.5 -0.11,-1.16 -0.63,-1.65 -1.37,-2.02 -0.42,-0.21 -1.24,-0.41 -2.11,-0.63 -0.71,-0.18 -1.45,-0.36 -2.01,-0.56 -0.83,-0.29 -2.42,-1.39 -3.58,-2.18 -0.59,-0.41 -1.11,-0.76 -1.4,-0.93 -0.91,-0.52 -4.66,-1.19 -5.47,-0.88 -0.42,0.16 -0.63,0.43 -0.73,0.66 -0.14,-0.25 -0.27,-0.33 -0.31,-0.35 -0.25,-0.2 -1.03,-0.46 -1.07,-0.47 -0.06,-0.02 -0.13,-0.03 -0.19,-0.05 0.22,-0.17 0.54,-0.4 0.86,-0.59 0.59,-0.34 1.79,-0.49 2.71,-0.49 1,0 1.42,-0.16 1.43,-0.17 l 0.12,-0.05 -0.11,-0.06 c 0,0 -0.35,-0.17 -1.02,-0.26 -0.43,-0.05 -1.34,0.03 -2.06,0.1 -0.41,0.04 -0.76,0.07 -0.94,0.07 -0.48,0 -1.87,1.07 -2.08,1.23 -0.42,-0.05 -0.8,-0.07 -1,-0.07 -0.03,0 -0.05,0 -0.07,0 -0.36,-0.03 -1.23,0.12 -1.27,0.13 -0.36,0.06 -0.76,0.22 -0.84,0.26 -0.18,-0.32 -0.29,-0.7 -0.25,-1.14 0.04,-0.45 0.19,-0.83 0.4,-0.99 h 0.01 c 0.37,-0.49 1.38,-1.19 1.39,-1.2 0.29,-0.22 3.15,-1.52 6.26,-1.62 2.76,-0.09 5.43,0.01 7.92,0.31 1.92,0.23 7.08,2.48 7.13,2.5 1.55,0.79 2.79,2.58 2.81,2.61 0.98,1.04 3.07,5.9 3.09,5.94 1.29,4.4 1.54,5.13 1.62,5.25 v 0 c 0.09,0.14 1.13,3.63 1.32,9.48 z m -1.99,8.66 c 0,0 0,0.06 -0.01,0.1 l -0.24,0.62 c -0.04,0.08 -0.07,0.16 -0.11,0.24 0,0 0,0.04 0,0.06 l -0.13,0.34 c -0.16,0.66 -3.35,1.36 -4.55,1.58 l -0.69,-0.03 h -0.59 L 279.31,108 c 0,-0.2 -0.03,-0.35 -0.04,-0.37 l -0.13,-0.58 c 0.05,-0.05 0.16,-0.07 0.2,-0.07 1.83,-0.03 3.41,-0.67 3.42,-0.68 0.05,-0.02 1.03,-0.43 1.41,-0.58 0.33,-0.13 0.69,-0.54 0.71,-0.76 0.01,-0.08 -0.02,-0.12 -0.05,-0.14 -0.07,-0.05 -0.19,-0.04 -0.36,0.04 -0.78,0.35 -3.45,1.25 -3.47,1.25 l -0.61,0.09 h -0.93 c -0.28,0 -0.48,-0.53 -0.6,-0.95 0.06,-0.08 0.3,-0.34 1.17,-0.34 0.12,0 0.25,0 0.4,0.02 h 0.02 c 0,0 2.79,-0.53 4.43,-1.7 0.14,-0.04 0.44,-0.09 0.67,-0.03 0.02,0.23 0.06,0.39 0.06,0.4 0.46,0.99 0.36,1.47 0.36,1.48 v 0.02 c 0,0 0,0.02 0,0.02 z m 4.86,13.6 v 0.02 c -0.11,0.45 -0.15,0.86 -0.16,1.22 -0.32,-0.31 -0.76,-0.57 -1.36,-0.6 -0.06,0 -0.61,-0.05 -0.9,-0.08 l -0.85,0.03 c -0.08,-0.5 -0.41,-2.13 -1.24,-2.95 -0.63,-0.63 -1.05,-0.94 -1.42,-1.21 -0.2,-0.15 -0.38,-0.28 -0.58,-0.45 -0.57,-0.5 -1.57,-1.28 -1.57,-1.28 -0.48,-0.6 -0.45,-1 0.14,-2.08 0.26,-0.25 0.41,-2.19 0.45,-2.76 0.39,-0.07 0.73,-0.15 1.01,-0.23 0,0.34 0.04,1.08 0.17,1.93 0.08,0.57 -0.11,1.23 -0.25,1.71 -0.09,0.34 -0.16,0.58 -0.13,0.71 0.1,0.33 1.29,1.42 1.78,1.66 0.1,0.05 0.23,0.11 0.39,0.19 0.64,0.31 1.71,0.84 2.14,1.14 0.31,0.21 0.81,0.75 1.26,1.22 0.33,0.35 0.61,0.65 0.77,0.77 0.19,0.15 0.4,0.46 0.56,0.72 -0.09,0.15 -0.17,0.28 -0.21,0.34 z m -7,-2.77 0.02,-0.21 0.11,0.04 1.19,0.92 1.01,1.03 c 0,0 0.49,0.49 0.51,0.96 l 0.02,0.67 h -0.24 c 0,0 -1.36,-0.07 -1.36,-0.07 h -0.02 l -0.02,0.02 c 0,0 -0.11,0.09 -0.33,0.03 h -0.02 c 0,0 -0.01,0 -0.02,0 -0.13,0 -0.7,-0.06 -0.94,-0.67 l 0.1,-1.09 0.09,-0.53 v 0 c 0,0 -0.09,-1.09 -0.09,-1.09 z m -0.5,-23.18 c -0.07,0.32 -0.22,0.61 -0.33,0.8 -0.23,-0.25 -0.42,-0.49 -0.5,-0.69 -0.08,-0.2 -0.13,-0.39 -0.18,-0.6 -0.17,-0.64 -0.35,-1.3 -1.21,-1.95 -0.59,-0.45 -1.48,-0.7 -2.34,-0.95 -0.77,-0.22 -1.57,-0.45 -2.12,-0.82 -0.37,-0.24 -0.62,-1.13 -0.86,-2 -0.16,-0.57 -0.33,-1.16 -0.53,-1.58 -0.42,-0.86 -1.33,-1.06 -2.06,-1.22 -0.18,-0.04 -0.35,-0.08 -0.5,-0.12 -0.74,-0.22 -2.29,-1.42 -3.29,-3.73 -0.98,-2.26 -2.08,-2.5 -2.67,-2.63 h -0.05 c -0.41,-0.1 -1.83,0.02 -2.78,0.1 -0.41,0.03 -0.73,0.06 -0.84,0.06 -0.13,0 -0.3,-0.1 -0.45,-0.21 0.13,-0.49 0.42,-1.17 1.01,-1.17 1,0 2.67,0 4.46,1.05 0.44,0.26 0.94,0.57 1.48,0.91 1.66,1.04 3.73,2.33 5.21,2.72 l 0.14,0.04 c 1.82,0.47 2.57,0.66 2.81,1.54 0.08,0.29 0.13,0.72 0.2,1.22 0.13,1.06 0.3,2.38 0.82,3.16 0.36,0.55 1.05,1 1.78,1.49 0.77,0.51 1.57,1.05 1.95,1.69 0.76,1.27 0.98,2.36 0.86,2.89 z m -5.05,10.75 c -0.1,-0.25 -0.27,-0.65 -0.49,-0.97 -0.18,-0.33 -0.66,-0.79 -1.53,-1.45 -0.07,-0.05 -0.49,-0.21 -1,-0.38 0.02,-0.08 0.01,-0.16 -0.05,-0.25 l -0.06,-0.08 q -0.16,-0.22 -0.15,-0.67 v -0.23 c 0.01,-0.51 0,-0.62 0,-0.74 0,-0.06 0,-0.12 0,-0.24 0,-0.15 -0.05,-0.31 -0.11,-0.49 0.16,-0.04 0.35,-0.08 0.55,-0.13 0.54,-0.12 1.21,-0.62 1.68,-1.27 0.15,-0.21 0.35,-0.82 0.51,-1.35 0.35,-0.1 0.79,-0.22 1.11,-0.12 0.54,0.16 1.67,0.78 1.91,1.16 0.14,0.23 0.26,0.69 0.37,1.13 0.03,0.13 0.07,0.26 0.1,0.38 l -2.02,0.16 -1.26,0.29 -1.43,0.6 0.36,0.41 0.02,0.02 h 0.03 c 0.14,-0.02 1.35,-0.16 1.46,-0.2 1.99,-0.56 3.25,-0.17 3.26,-0.16 h 0.02 c 0,0 0.08,0.05 0.12,0.07 0.05,0.08 0.09,0.15 0.14,0.23 0.25,0.4 0.51,0.81 0.54,0.96 0.03,0.23 -0.19,0.92 -0.57,1.51 -0.23,0.11 -0.66,0.29 -1.07,0.3 l -0.82,-0.08 -0.55,-0.12 c -0.1,-0.05 -0.35,-0.15 -0.41,-0.15 -0.05,0 -0.3,-0.13 -0.51,-0.24 -0.49,-0.39 -0.55,-0.4 -0.57,-0.4 -0.05,0 -0.4,-0.12 -0.72,-0.24 l -0.69,-0.05 0.41,0.49 0.44,0.24 0.36,0.09 0.62,0.53 0.57,0.38 0.35,0.16 0.48,0.16 0.88,0.09 1.06,-0.05 c 0.38,0.09 0.79,0.24 0.8,0.33 l 0.11,0.3 c -0.06,0.02 -0.1,0.04 -0.17,0.06 -0.01,0 -1.1,0.67 -3.07,0.67 -0.14,0 -0.28,0 -0.42,0 l -0.59,-0.64 c 0,0 0,0 0,0 z m -4.95,-3.46 c -0.59,-0.34 -0.96,-0.66 -1.15,-0.84 -0.04,-0.03 -0.07,-0.06 -0.09,-0.08 -0.97,-0.81 -1.49,-0.95 -1.52,-0.96 -0.05,0 -0.11,-0.01 -0.16,-0.01 -0.01,0 -0.03,0 -0.04,0 -0.27,-0.31 -0.66,-0.82 -0.6,-1.08 0.09,-0.4 0.26,-0.66 0.51,-0.78 0.17,-0.08 0.87,-0.1 1.37,-0.1 0.01,0 0.02,0.01 0.04,0.02 0.35,0.22 1.22,0.73 1.23,0.73 0.49,0.26 0.82,0.68 0.97,1.24 0.18,0.65 -0.11,1.73 -0.19,1.97 -0.18,-0.06 -0.32,-0.11 -0.37,-0.12 z m -2.1,-11.45 c -0.51,0.07 -1.22,0.15 -1.48,-0.06 -0.22,-0.19 -0.46,-0.52 -0.68,-0.85 -0.19,-0.27 -0.36,-0.53 -0.53,-0.7 -0.29,-0.29 -0.69,-0.52 -1.1,-0.71 -0.15,-0.27 -0.59,-1.07 -0.86,-1.31 -0.7,-0.64 -1.18,-1 -1.61,-1.32 -0.19,-0.14 -0.37,-0.28 -0.55,-0.42 -1.11,-0.89 -2.34,-1.37 -2.78,-1.53 0.25,-0.67 0.41,-1.22 0.52,-1.65 0.32,0.06 0.67,0.09 1.05,0.11 1.04,0.06 2.23,0.13 3.17,0.87 0.09,0.07 0.17,0.61 0.24,1.08 0.11,0.73 0.22,1.49 0.47,1.65 0.3,0.19 0.7,0.34 1.12,0.51 0.81,0.32 1.74,0.69 2.3,1.39 0.72,0.9 0.74,2.42 0.72,2.95 z m 5.72,5.72 c -0.11,0.48 -0.32,1.28 -0.53,1.65 -0.31,0.56 -0.68,0.8 -1.1,1.04 -0.24,0.14 -0.56,0.13 -0.79,0.1 -0.14,-0.25 -0.4,-0.4 -0.71,-0.54 -0.19,-0.09 -0.39,-0.18 -0.54,-0.31 -0.22,-0.17 -0.56,-0.41 -0.85,-0.6 0.38,-0.29 0.7,-0.91 0.79,-1.33 0.15,-0.66 0.17,-1.12 0.15,-1.74 v -0.11 c -0.02,-0.53 -0.04,-0.94 -0.13,-1.17 0.35,-0.3 0.94,-0.75 1.91,-0.56 0.81,0.16 1.51,1.89 1.77,2.79 0.04,0.15 0.03,0.47 0.02,0.78 z M 263.88,83.69 c 0.72,0.55 1.51,1.35 1.81,1.65 l 0.09,0.1 c 0.11,0.1 0.17,0.24 0.23,0.38 -0.57,-0.14 -1.16,-0.25 -1.51,-0.25 -0.43,0 -1.15,0.21 -1.62,0.59 -0.06,0.05 -0.1,0.09 -0.15,0.14 -0.37,-0.95 -1.25,-1.91 -1.29,-1.95 -0.59,-0.59 -0.54,-0.92 -0.54,-0.92 0.12,-0.25 0.22,-0.48 0.32,-0.71 0.64,0.09 1.8,0.32 2.67,0.98 z m -1.11,4.99 c 0.11,-0.47 0.11,-1.04 0.08,-1.5 0.26,-0.3 0.63,-0.66 0.99,-0.75 0.7,-0.18 1.54,-0.03 2.11,0.12 0.58,0.16 1.56,0.42 2.07,1.05 0.14,0.17 0.27,0.37 0.39,0.56 0.25,0.39 0.5,0.79 0.89,1 0.26,0.14 0.96,0.29 1.42,0.39 0.13,0.03 0.25,0.05 0.33,0.07 0.43,0.1 0.7,0.28 0.9,0.49 0,0.01 0,0.03 0,0.04 0.12,0.35 0.52,1.6 0.52,2.78 0,0.19 -0.11,0.94 -0.43,1.55 -0.04,0.07 -0.06,0.14 -0.09,0.2 -0.06,0.16 -0.11,0.26 -0.23,0.26 -0.04,0 -0.09,-0.01 -0.15,-0.03 -0.16,-0.06 -0.27,-0.11 -0.37,-0.15 -0.16,-0.07 -0.29,-0.13 -0.53,-0.2 -0.39,-0.11 -0.91,-0.11 -0.93,-0.11 0,0 -0.95,0.19 -1.29,-0.27 -0.16,-0.22 -0.24,-0.48 -0.31,-0.72 -0.09,-0.3 -0.17,-0.56 -0.4,-0.63 -0.1,-0.03 -0.17,-0.07 -0.25,-0.11 0.03,-0.04 0.06,-0.08 0.08,-0.12 0.33,-0.48 0.42,-0.68 0.48,-1.08 0.06,-0.4 -0.01,-1.15 -0.12,-1.49 -0.2,-0.65 -0.59,-1.28 -0.71,-1.46 -0.2,-0.31 -1.49,-0.83 -1.8,-0.83 0,0 -0.02,0 -0.02,0 -0.08,0 -0.1,0.06 -0.11,0.08 -0.04,0.21 0.78,0.7 0.88,0.76 0.47,0.27 0.92,1.1 1.06,1.56 0.12,0.41 -0.24,1.51 -0.3,1.7 -0.17,0.06 -1.12,0.37 -1.6,0.19 -0.3,-0.11 -0.55,-0.25 -0.82,-0.39 -0.21,-0.12 -0.44,-0.24 -0.7,-0.35 -0.41,-0.18 -1.13,-0.96 -1.5,-1.37 0.13,-0.62 0.45,-1.24 0.46,-1.25 v 0 z m 0.65,3.07 c 0.35,0.11 0.52,0.35 0.68,0.55 0.04,0.05 0.07,0.08 0.1,0.12 0.07,0.72 0.2,1.89 0.32,2.36 0.07,0.28 0.17,0.52 0.26,0.73 0.13,0.31 0.24,0.58 0.2,0.86 -0.05,0.31 -0.03,0.82 -0.01,1.18 -1.16,0.04 -1.35,-0.09 -1.36,-0.1 -0.19,-0.24 -0.57,-2.96 -0.79,-4.74 l -0.33,-1.38 c 0.27,0.14 0.61,0.3 0.94,0.4 z m 2.08,4.24 -0.06,-0.24 c -0.16,-0.59 -0.36,-1.32 -0.35,-1.76 0,-0.37 -0.04,-0.93 -0.07,-1.24 0.19,0.09 0.41,0.21 0.61,0.33 0.22,0.13 0.43,0.25 0.61,0.33 0.09,0.04 0.17,0.05 0.26,0.05 0.04,0 0.07,-0.02 0.11,-0.03 -0.06,0.17 -0.11,0.34 -0.15,0.43 -0.13,0.28 -0.14,0.83 -0.14,1.22 0,0.39 0.1,1.12 0.22,1.41 0.07,0.16 0.17,0.59 0.25,0.93 -0.4,0.04 -0.75,0.07 -1.06,0.1 -0.03,-0.38 -0.1,-1.08 -0.22,-1.53 z m 2.84,2.66 v -0.02 c -0.22,-0.31 -0.31,-0.7 -0.32,-0.77 0.02,-0.11 -0.01,-0.2 -0.08,-0.28 0,0 -0.02,-0.01 -0.03,-0.02 l -0.06,-0.05 c 0,0 -0.62,-0.5 -0.62,-1.13 0,-0.28 -0.08,-0.64 -0.14,-0.99 -0.1,-0.49 -0.19,-0.99 -0.08,-1.14 0.11,-0.15 0.34,-0.3 0.53,-0.41 0.19,0.18 0.36,0.36 0.45,0.5 0.05,0.06 0.09,0.13 0.13,0.19 0.27,0.39 0.53,0.77 1.13,0.81 h 0.11 c 0.49,0.04 0.75,0.07 1.24,0.24 -0.32,0.02 -0.67,0.07 -0.83,0.23 -0.26,0.27 -0.62,0.69 -0.69,1.18 -0.05,0.32 0.03,0.7 0.12,1.14 l 0.02,0.08 c 0.02,0.12 0.09,0.25 0.15,0.36 -0.23,0.16 -0.44,0.35 -0.61,0.52 -0.34,-0.17 -0.41,-0.41 -0.41,-0.42 z m 22.77,13.34 c 0,0 -0.06,0.03 -0.1,0.03 -0.02,0 -0.04,0 -0.06,0 h -0.02 c -2.4,0.47 -3.19,0.17 -3.43,-0.16 -0.17,-0.24 -0.07,-0.55 -0.02,-0.67 0.06,0 0.17,-0.09 0.69,-1.8 0.19,-0.53 -0.32,-1.2 -0.39,-1.28 -0.08,-0.2 -0.91,-1.13 -1.17,-1.42 0.03,-0.04 0.06,-0.09 0.08,-0.11 0.01,0 0.02,0 0.03,0 0.26,-0.04 1.08,-0.22 1.11,-0.23 1.71,-0.21 3.17,-0.2 3.6,2.13 -0.04,0.17 -0.47,1.92 -0.34,3.53 z m -35.98,-36.83 -0.83,1.28 c 0,0 -0.09,0.16 -0.2,0.38 -0.12,0.02 -0.29,0.03 -0.51,-0.06 -0.28,-0.11 -1.06,-0.89 -1.69,-1.53 -0.08,-0.08 -0.14,-0.14 -0.21,-0.21 0.11,-0.06 0.26,-0.13 0.47,-0.18 0.07,-0.02 0.13,-0.02 0.19,-0.03 0.45,0.29 1.08,0.48 1.99,0.29 0.03,0 0.56,-0.05 0.9,-0.1 -0.06,0.08 -0.12,0.15 -0.12,0.15 z m -3.48,-1.05 c -0.23,0.06 -0.43,0.2 -0.57,0.32 -0.04,-0.04 -0.11,-0.1 -0.14,-0.12 -0.85,-0.58 -1.9,-0.36 -2.45,-0.18 -0.18,0.06 -0.48,0.23 -0.82,0.45 -0.13,0 -0.28,-0.05 -0.41,-0.18 l -0.13,-0.13 c -0.41,-0.41 -0.82,-0.82 -0.93,-0.88 -0.36,-0.23 -0.8,-0.37 -1.08,-0.46 l 0.14,-0.16 0.29,-0.41 c 0,0 0.46,-0.68 0.93,-1.01 l 0.09,-0.05 c 0.31,-0.15 0.67,-0.33 1.01,-0.33 h 0.02 l 1.82,0.14 c 0,0 1.21,0 1.44,0.96 l 0.62,1.68 c 0,0 0.06,0.16 0.19,0.35 0,0 0,0 0,0 z m -7.04,-0.44 c 0.38,0.04 0.84,0.17 1.29,0.5 0.28,0.21 0.74,0.68 0.99,0.94 -0.65,0.47 -1.29,0.98 -1.51,1.2 -0.14,0.14 -0.32,0.32 -0.49,0.51 -1.79,-0.3 -2.82,0.55 -3.1,0.83 -0.95,0.96 -2,0.97 -2.61,0.73 0.33,-0.27 0.78,-0.63 1.04,-0.84 0.47,-0.37 0.94,-1.02 1.38,-1.66 0.47,-0.67 2.15,-1.84 2.15,-1.84 z m 9.06,35.25 c -0.08,0 -0.17,0 -0.25,0 -1.47,0 -2.45,-0.37 -2.93,-1.09 -0.74,-1.12 0,-2.74 0,-2.76 l 0.46,-1.12 c 0.07,-0.2 0.17,-0.18 0.36,-0.15 0.06,0.01 0.13,0.02 0.2,0.03 h 0.06 c 0.2,0 0.32,-0.05 0.36,-0.15 0.1,-0.22 -0.21,-0.56 -0.25,-0.59 -0.19,-0.2 -0.39,-0.54 -0.38,-0.89 0,-0.23 0.11,-0.45 0.31,-0.63 l 0.02,-0.02 v -0.02 c 0,0 0,-0.09 -0.04,-0.12 -0.09,-0.08 -0.3,-0.05 -0.33,-0.05 h -0.02 c -0.61,0.41 -0.88,0.09 -0.89,0.08 -0.11,-0.17 -0.15,-0.34 -0.12,-0.49 0.05,-0.25 0.28,-0.39 0.28,-0.39 h 0.01 c 0,0 0.33,-0.34 1.49,-0.03 0.29,0.08 0.98,0 1.01,0 0.55,-0.1 0.54,-0.54 0.54,-0.55 v -0.03 l -0.02,-0.02 c -0.29,-0.21 -0.42,-0.32 -0.5,-0.39 -0.1,-0.09 -0.14,-0.12 -0.32,-0.2 -0.09,-0.03 -0.15,0.04 -0.22,0.13 -0.15,0.2 -0.41,0.52 -1.14,0.01 -0.54,-0.51 -0.66,-0.5 -0.76,-0.49 -0.13,0 -0.23,0 -0.31,0.01 -0.32,0.02 -0.36,0.03 -0.49,-0.45 l -0.05,-2.44 0.02,-0.66 1.02,0.13 c 0.52,0.18 0.85,0.17 0.99,0.16 v 0 c 0.06,0.02 0.39,-0.07 0.6,-0.28 0.19,-0.19 0.37,-0.53 0.14,-1.09 l -0.05,-0.13 -0.05,0.13 c -0.26,0.64 -1.53,0.5 -1.68,0.48 -1.06,-0.76 -2.49,-0.41 -2.54,-0.39 -0.54,0.08 -0.89,0 -1.05,-0.22 -0.26,-0.37 0.09,-1.03 0.09,-1.03 l 1.78,-2.82 c 0,0 1.95,-2.73 2.98,-4.48 v -0.02 c 0.22,-1.77 0.53,-2.53 0.57,-2.61 0.73,-0.81 0.96,-1.53 1,-1.66 1.03,-3.4 1.21,-4.11 1.21,-4.12 0.13,-0.54 0.81,-1.66 1.59,-1.81 0.07,0 0.16,-0.02 0.28,-0.04 0.5,-0.07 1.35,-0.18 1.62,-0.13 0.07,0.01 0.16,0.02 0.26,0.03 0.5,0.06 1.33,0.15 2.54,0.67 1.16,0.35 0.39,3.28 0.39,3.3 l -1.72,3.73 c -0.17,0.33 0.47,0.9 0.53,0.95 0.1,0.14 0.96,1.21 1.01,1.26 0,0 0.82,0.75 0.7,2.14 0.1,0.89 -0.11,1.24 -0.32,1.62 -0.09,0.16 -0.19,0.33 -0.27,0.54 v 0.02 c -0.05,0.78 0.33,2.25 0.35,2.32 0,0.01 0.01,0.04 0.02,0.05 -0.38,0.29 -1.04,0.73 -2.12,1.15 -0.23,0.09 -0.5,0.19 -0.77,0.29 -1.43,0.53 -1.88,0.72 -1.88,0.87 0,0.02 0,0.06 0.05,0.09 0.1,0.08 0.35,0.1 0.61,0.1 0.28,0 0.58,-0.03 0.74,-0.06 0.38,-0.08 1.45,-0.43 1.82,-0.58 0.27,-0.1 1.28,-0.54 1.81,-0.77 0.08,0.37 0.16,0.77 0.23,1.12 -0.19,0.11 -0.41,0.23 -0.61,0.32 -0.34,0.15 -0.83,0.41 -1.2,0.59 -0.17,0.09 -0.31,0.16 -0.4,0.2 -0.18,0.09 -0.87,0.51 -0.89,0.64 0,0.03 0,0.06 0.03,0.09 0.09,0.1 0.37,0.22 0.54,0.22 0.01,0 0.02,0 0.03,0 0.12,-0.01 0.58,-0.2 1.22,-0.47 0.2,-0.08 0.38,-0.16 0.52,-0.22 0.31,-0.12 0.68,-0.3 0.93,-0.42 0,0.02 0.01,0.06 0.01,0.06 0.16,2.29 0.27,2.73 0.34,2.81 0.19,0.22 1.5,0.19 4.01,0.04 1.1,0.52 1.27,1.35 1.35,1.71 l -0.24,0.67 c -0.37,0.93 -1.85,5 -1.86,5.03 -0.05,0.09 -0.09,0.2 -0.14,0.31 -0.23,0.54 -0.51,1.2 -1.7,1.43 -1.23,0.47 -1.97,0.67 -3.42,0.93 -2.41,0.55 -4.14,0.55 -4.16,0.55 l -2.97,0.06 z m 5.57,0.88 c -0.03,-0.07 -0.04,-0.09 -0.04,-0.16 0,-0.13 0.59,-0.27 1.14,-0.32 5.23,-0.9 5.98,-2.29 6.26,-2.82 0.03,-0.05 0.05,-0.1 0.08,-0.14 0.9,-1.58 2.47,-6.17 2.56,-6.42 0.07,-0.07 0.56,-0.64 0.96,-0.75 0.54,-0.16 1.05,0.4 1.05,0.4 h 0.02 c 0.25,0.16 1.3,0.98 1.31,0.99 0.4,0.29 1.29,0.5 1.33,0.51 0.26,0.06 1.06,0.36 1.54,0.54 0.2,0.08 0.34,0.13 0.39,0.15 0.14,0.04 0.79,0.47 0.83,0.59 0.02,0.05 0.06,0.1 0.12,0.15 0.04,0.13 0.08,0.29 0.07,0.44 l -0.33,0.27 -4.37,3.19 c -3.47,2.69 -8.05,8.52 -8.1,8.58 l -2.57,3.22 -0.33,0.49 -0.34,-1.78 -1.08,-4.97 c -0.29,-1.62 -0.44,-2 -0.51,-2.16 z m 32.4,7.51 c -0.25,-0.21 -0.62,-0.53 -1.04,-0.98 -0.89,-0.94 -1.79,-1.62 -2.82,-2.13 -0.11,-0.05 -0.21,-0.11 -0.32,-0.16 -0.96,-0.47 -1.94,-0.95 -2.23,-1.68 -0.15,-0.37 -0.03,-0.61 0.11,-0.92 0.17,-0.36 0.36,-0.77 0.18,-1.48 -0.21,-0.82 -0.39,-1.5 -0.49,-1.9 0.45,-0.2 0.65,-0.36 0.66,-0.38 0.13,-0.08 0.27,-0.22 0.41,-0.36 0.13,0.21 0.29,0.46 0.35,0.58 v 0.02 c 0,0 0.78,0.71 0.91,1.22 -0.08,0.24 -0.83,2.12 -0.84,2.14 -0.18,0.73 -0.16,1.22 0.08,1.47 0.16,0.17 0.44,0.23 0.78,0.15 l 4.41,0.26 c 0.76,1.22 0.78,2.24 0.74,2.67 0,0.02 0,0.03 0,0.04 0,0.05 0,0.23 -0.64,1.03 -0.01,0.02 -0.12,0.19 -0.25,0.41 z"
           id="path6733" />
        <path
           class="cls-2"
           d="m 240.34,94.98 c 0.04,-0.31 0.02,-0.71 0.01,-0.97 0,-0.1 0,-0.19 0,-0.22 0,-0.09 0.05,-0.2 0.12,-0.23 0.07,-0.04 0.19,-0.05 0.37,-0.04 h 0.12 c 0.15,0.02 0.32,0.03 0.49,0.05 0.2,0.03 0.62,0.1 0.74,0.13 0.05,0.02 0.13,0.06 0.2,0.1 0.09,0.05 0.19,0.11 0.3,0.15 0.05,0.02 0.12,0.04 0.2,0.07 0.24,0.08 0.6,0.21 0.72,0.29 0.15,0.11 0.54,0.56 0.61,0.65 0.07,0.11 0.23,0.31 0.3,0.38 0.08,0.08 0.25,0.19 0.43,0.24 0.18,0.05 0.42,0 0.43,0 l 0.09,-0.02 -0.06,-0.07 c -0.05,-0.06 -0.41,-0.62 -0.69,-1.06 -0.29,-0.45 -0.47,-0.73 -0.5,-0.77 -0.07,-0.08 -0.2,-0.15 -0.41,-0.21 -0.08,-0.02 -0.21,-0.06 -0.34,-0.1 -0.1,-0.03 -0.2,-0.07 -0.28,-0.09 -0.09,-0.03 -0.24,-0.1 -0.41,-0.18 -0.14,-0.06 -0.28,-0.13 -0.4,-0.18 -0.06,-0.02 -0.13,-0.06 -0.22,-0.09 -0.28,-0.12 -0.65,-0.29 -0.95,-0.32 -0.37,-0.04 -1.66,0.05 -1.8,0.11 -0.13,0.06 -0.21,0.19 -0.2,0.31 0,0.07 0.05,0.2 0.13,0.42 0.03,0.07 0.05,0.14 0.07,0.2 0,0 0.08,0.24 0.11,0.43 0.02,0.2 0.03,0.79 0,1.11 -0.03,0.29 -0.08,0.42 -0.15,0.58 l -0.02,0.05 c -0.04,0.1 -0.18,0.29 -0.29,0.44 -0.17,0.23 -0.18,0.26 -0.17,0.3 l 0.02,0.03 h 0.03 c 0,0 0.03,0 0.05,0 0.2,0 0.8,-0.06 0.91,-0.16 0.11,-0.11 0.37,-0.92 0.42,-1.35 z"
           id="path6735" />
        <path
           class="cls-2"
           d="m 243.67,95.76 c 0,0 -0.06,-0.06 -0.1,-0.1 -0.13,-0.13 -0.24,-0.22 -0.29,-0.25 -0.03,-0.02 -0.1,-0.08 -0.16,-0.13 -0.06,-0.05 -0.11,-0.1 -0.15,-0.12 -0.05,-0.04 -0.14,-0.1 -0.2,-0.14 l -0.07,-0.05 c 0,0 -0.31,-0.21 -0.38,-0.23 h -0.02 c -0.06,-0.03 -0.24,-0.1 -0.28,-0.12 -0.01,0 -0.04,-0.03 -0.07,-0.06 -0.05,-0.04 -0.1,-0.09 -0.15,-0.12 -0.07,-0.04 -0.55,-0.14 -0.65,-0.15 v 0 c -0.12,0 -0.34,0.16 -0.39,0.22 -0.03,0.05 -0.02,0.13 0,0.19 0.01,0.04 0.05,0.17 0.13,0.21 0.04,0.02 0.14,0.06 0.24,0.1 -0.04,0.14 -0.1,0.34 -0.11,0.49 -0.02,0.21 -0.03,0.45 0,0.59 0.03,0.14 0.19,0.39 0.29,0.5 0.1,0.11 0.31,0.17 0.32,0.17 0,0 0.02,0 0.03,0 0.04,0 0.09,0 0.14,-0.05 0.06,-0.06 0.07,-0.15 0.05,-0.28 -0.05,-0.26 -0.05,-0.35 -0.06,-0.51 v -0.09 c -0.01,-0.13 0.09,-0.31 0.17,-0.46 0.05,0.02 0.12,0.05 0.15,0.07 0.14,0.09 0.5,0.37 0.6,0.47 0.03,0.03 0.08,0.06 0.12,0.09 0.14,0.08 0.22,0.14 0.18,0.29 -0.06,0.25 -0.22,0.36 -0.37,0.43 -0.15,0.07 -0.37,0.16 -0.51,0.2 -0.15,0.05 -0.52,0.1 -0.63,0.11 -0.15,0.02 -0.41,0.04 -0.41,0.04 h -0.02 c 0,0 -0.18,0.08 -0.19,0.18 -0.01,0.11 0.12,0.17 0.13,0.17 h 0.5 c 0,0 0.17,-0.01 0.3,-0.01 0.04,0 0.1,0 0.16,0 0.12,0 0.26,0 0.34,0 0.14,-0.02 0.4,-0.1 0.53,-0.16 0.16,-0.06 0.83,-0.44 0.9,-0.49 0.07,-0.06 0.15,-0.17 0.18,-0.24 0.04,-0.08 0.02,-0.24 -0.02,-0.34 -0.04,-0.11 -0.2,-0.36 -0.29,-0.44 z"
           id="path6737" />
        <path
           class="cls-2"
           d="m 253.83,85.44 c 0,0 0.02,0 0.04,0 0.26,0 1.22,0.23 1.65,0.36 0.41,0.12 0.58,0.19 0.7,0.27 0.11,0.08 0.59,0.51 0.89,0.81 0.12,0.12 0.23,0.18 0.33,0.23 0.13,0.07 0.22,0.12 0.24,0.29 0,0.04 0.03,0.1 0.16,0.14 0.05,0.01 0.1,0.02 0.15,0.02 0.16,0 0.34,-0.05 0.42,-0.15 0.06,-0.07 0.07,-0.15 0.02,-0.24 -0.07,-0.15 -0.09,-0.18 -0.14,-0.2 -0.02,-0.01 -0.07,-0.04 -0.23,-0.26 -0.17,-0.23 -0.36,-0.39 -0.58,-0.58 -0.08,-0.06 -0.16,-0.13 -0.24,-0.21 -0.4,-0.35 -0.57,-0.48 -0.77,-0.59 -0.02,-0.01 -0.05,-0.03 -0.09,-0.05 -0.32,-0.19 -1.16,-0.69 -2.25,-0.72 0,0 0,0 0,0 -0.26,0 -0.91,0.41 -0.99,0.45 l -0.04,0.02 0.14,0.39 h 0.03 c 0,0 0.34,0.05 0.56,0.02 z"
           id="path6739" />
        <path
           class="cls-2"
           d="m 257.89,88.98 c 0.06,0 0.11,0 0.19,0 0.14,-0.01 0.17,-0.06 0.2,-0.12 0.02,-0.04 0.05,-0.09 0.17,-0.15 0.06,-0.03 0.06,-0.08 0.05,-0.1 -0.07,-0.15 -1.22,-0.21 -1.43,-0.11 -0.1,0.04 -0.3,0.09 -0.5,0.13 -0.28,0.06 -0.57,0.12 -0.7,0.21 -0.06,0.04 -0.16,0.08 -0.27,0.12 -0.25,0.09 -0.54,0.2 -0.51,0.43 0,0.05 0.03,0.09 0.07,0.12 0.04,0.02 0.09,0.04 0.16,0.04 0.19,0 0.48,-0.1 0.81,-0.21 0.08,-0.03 0.16,-0.06 0.22,-0.07 0.19,-0.06 0.25,-0.07 0.38,-0.09 0.1,-0.02 0.25,-0.04 0.52,-0.1 0.42,-0.09 0.54,-0.08 0.66,-0.07 z"
           id="path6741" />
        <path
           class="cls-2"
           d="m 255.36,87 c 0.32,0.09 0.89,0.5 1.04,0.67 -0.01,0 -0.02,0.01 -0.03,0.02 -0.11,0.07 -0.35,0.19 -0.57,0.3 -0.5,0.25 -0.64,0.33 -0.66,0.39 v 0.03 c 0,0 0,0.02 0,0.02 0,0.01 0.02,0.03 0.05,0.04 0,0 0.02,0 0.04,0 0.25,0 1.2,-0.28 1.39,-0.39 0.21,-0.13 0.34,-0.39 0.35,-0.4 v -0.02 c 0,0 -0.05,-0.31 -0.05,-0.31 h -0.01 c -0.05,-0.1 -0.12,-0.22 -0.22,-0.35 -0.18,-0.24 -1.14,-0.76 -1.45,-0.81 -0.02,0 -1.65,-0.27 -1.83,-0.09 -0.16,0.15 -0.05,0.56 -0.04,0.61 v 0.04 c 0,0 0.06,0 0.06,0 h 0.05 c 0.08,0 0.28,0 0.52,0.02 0,0.17 0,0.38 0.02,0.52 0,0.04 0.01,0.08 0.02,0.12 0.02,0.17 0.04,0.3 0.17,0.51 0.02,0.03 0.04,0.06 0.06,0.09 0.07,0.11 0.12,0.2 0.27,0.2 0.03,0 0.06,0 0.1,-0.01 0.19,-0.04 0.18,-0.25 0.17,-0.47 0,-0.12 0,-0.24 0.01,-0.35 0.05,-0.22 0.14,-0.36 0.23,-0.47 0.11,0.02 0.22,0.04 0.33,0.07 z"
           id="path6743" />
      </g>
    </g>
  </g>
</svg>
