<?xml version="1.0" encoding="UTF-8" standalone="no"?>
<svg
   viewBox="0 0 1821.0339 300"
   version="1.1"
   id="svg4947"
   width="1821.0339"
   height="300"
   xmlns="http://www.w3.org/2000/svg"
   xmlns:svg="http://www.w3.org/2000/svg">
  <defs
     id="defs837" />
  <defs
     id="defs4879">
    <style
       id="style4877">.minerva-base-style{}</style>
  </defs>
  <g
     transform="matrix(1.4285714,0,0,1.4285714,0,1.1830713e-6)"
     style="fill:#006c66"
     id="g4925">
    <title
       id="title4881">minerva</title>
    <path
       d="M 105,0 A 105,105 0 1 0 210,105 105.1,105.1 0 0 0 105,0 Z m 0,207.1 A 102.1,102.1 0 1 1 207.1,105 102.2,102.2 0 0 1 105,207.1 Z"
       id="path4883" />
    <path
       class="minerva-base-style"
       d="m 166.6,97 c -1.4,-3.1 -0.5,-5.1 -0.9,-7.3 -0.4,-2.2 -2.7,-7 -4.3,-10.8 -0.7,-1.7 3.8,-1.3 0.4,-7.6 0,-0.2 4.7,-2 0,-5.5 a 26.4,26.4 0 0 1 -6,-6.7 1,1 0 0 1 0,-1.3 c 2.7,-2.4 2.8,-5.8 -0.1,-7.5 -2.9,-1.7 -4.5,0 -6.7,1.4 -0.7,0.5 -1.1,0.8 -1.9,0.5 L 145.3,51 c 2.7,-2.6 3.3,-5.2 3.1,-5.6 -0.2,-0.4 -4.6,-1.3 -10.2,1 l -0.4,-0.3 c 2.3,-3.9 1,-6.7 0.9,-6.9 h -0.1 A 81,81 0 0 1 151,25.9 h 0.1 c 0.2,-0.3 0.3,-0.6 -0.2,-0.9 l -1,-0.6 A 92.4,92.4 0 0 0 12.7,105 c 0,29.5 15,57.9 39.4,75.6 a 13.5,13.5 0 0 0 2.8,1.6 1.1,1.1 0 0 0 1.1,-0.2 l 0.3,-0.5 a 1,1 0 0 0 0.3,-0.8 c 0,-0.7 -0.9,-1.3 -2.1,-3 a 27.7,27.7 0 0 1 -4.7,-15.1 22.1,22.1 0 0 1 4.5,-13.7 c 3.7,3.9 11.7,10.9 11.5,17.4 -0.2,6.5 -6.9,6.8 -5.4,12.2 0.9,3.4 3.4,2 3.9,4.6 0.7,4.4 6.7,7.3 9.3,6.9 0.7,-0.1 1.2,0.4 2.4,1.7 1.2,1.3 6.2,1.6 8.2,1.2 2,-0.4 4.1,1.4 8,0.9 3.9,-0.5 6.1,-0.9 8.2,-0.9 2.1,0 22.5,-0.3 36,1.8 2.4,0.4 3.1,-0.7 2.1,-2.5 -4.9,-8.6 -5.6,-15.8 -2.8,-25 5,0.4 12.2,1.7 21.6,-4 a 11,11 0 0 0 5.1,-9.5 c -0.1,-2.1 -1,-4.7 -0.5,-6.7 0.5,-2 1.3,-2.7 2.1,-3.2 3.6,-2.6 1,-4.6 0.4,-4.8 a 3.4,3.4 0 0 0 1.1,-4.6 c -0.7,-0.7 -2.7,-6.2 -0.4,-7.3 2.3,-1.1 5.3,-1.8 8.1,-3.1 a 4.5,4.5 0 0 0 2.4,-6 c -1.4,-3.6 -8.8,-20.6 -9,-21 z M 64.7,179.1 c -0.7,0.2 -2.9,0.3 -2.4,-2.7 0.5,-3 2.3,-2.6 3.3,-1.6 1,1 -0.7,2.8 -0.9,4.3 z m 87,-125.9 c 1.2,-0.8 2.5,-1.1 3.3,-0.4 2.6,2.6 -2.9,4.1 -1.8,6.1 a 30.7,30.7 0 0 0 7.5,8.4 c 1.2,1 1.4,3.1 -3.3,4.1 -4.7,1 -23.6,5.9 -33.6,16.5 -12.5,13.2 -20.4,30.3 -21.5,28 -1.1,-2.3 -3.6,-2.8 -3.2,-3.5 17.9,-30.8 46,-55.1 52.6,-59.2 z m 8.2,21.7 c -1,2.9 -9.1,5.5 -8.7,3.5 0.4,-2 0,-2.2 0.6,-2.3 0.6,-0.1 3.5,-1.1 7.5,-2.1 0.4,-0.1 0.9,0.1 0.6,0.9 z m -20.6,5.3 c -0.2,-1.2 8.5,-4.1 8.8,-3.3 0.3,0.8 -1.8,6 -4.7,7 -2.9,1 -4.7,0.9 -4.6,0.4 a 11,11 0 0 0 0.5,-4.1 z M 119,125.8 c -4,2.5 -6.2,-2.2 -6.8,-3.1 a 3.7,3.7 0 0 1 -0.5,-3.1 c 0.3,-1.4 0.5,-3.3 -0.4,-9.3 -0.4,-2.7 5,-9.2 6.3,-10.4 1.3,-1.2 3.1,0.6 3.2,2.6 0.3,3.6 -1.8,5.6 -3.9,7.2 -2.1,1.6 -3.1,4.4 -2.6,5.1 a 1.5,1.5 0 0 0 1.9,-0.9 c 1.5,-3.3 6,-4.9 6.7,-6.7 0.7,-1.8 0.3,-4.4 0.2,-5.6 -0.1,-1.2 0.9,-1.2 1.6,-1.1 0.7,0.1 1.4,1.4 1.8,2.7 2.9,7.5 -4.3,12 -5.5,13.8 -1.2,1.8 1.1,6.9 -2,8.8 z m 6.1,-29.1 c -2.2,1.5 -5.3,-0.5 -4.7,-1.4 a 43.7,43.7 0 0 1 11.5,-11 c 3.4,-2.1 3.8,-2.3 4,-1.1 a 10.6,10.6 0 0 1 -2.6,7.5 c -2.3,2.5 -4.6,2.3 -5.8,2.6 -1.2,0.3 -0.8,2.3 -2.4,3.4 z m -19.3,25.6 c -1,-0.2 -1.4,-2.1 -1.2,-2.9 0.2,-0.8 3.1,-5.2 4,-6.4 a 0.5,0.5 0 0 1 0.8,0.3 c 0.6,4.1 0,9.8 -3.6,9 z M 138,48.2 a 17.7,17.7 0 0 1 7.5,-1.6 c 0.8,0.1 -1.9,4.8 -6.6,6.8 -4.7,2 -8.5,2.5 -8.9,2.3 -0.4,-0.2 4.1,-5.8 8,-7.5 z m -83.3,78.3 c -1.5,-1.7 -2.8,-2.6 -2.9,-2.5 A 22.4,22.4 0 0 0 48.2,132.9 65.4,65.4 0 0 1 40.7,105 C 39.3,69.6 69,41.1 105.2,41.2 a 56.8,56.8 0 0 1 22.4,4.6 31.3,31.3 0 0 0 -3.7,6.6 c 0,-1.9 -0.5,-3.4 -0.4,-4.6 0.1,-1.2 -5.1,0.9 -9.7,8.3 a 19.9,19.9 0 0 0 -2.2,5.3 c -0.1,-2.8 -0.7,-4.9 -0.9,-4.9 a 16.1,16.1 0 0 0 -8.5,8.8 22.4,22.4 0 0 0 -1.1,3.4 c -0.2,-1.9 -0.7,-3.2 -0.9,-3.2 -0.2,0 -5.9,2.3 -8.6,8.9 A 15.4,15.4 0 0 0 90.5,79 C 90,76.7 89.1,75.3 88.8,75.6 86.9,78 83.1,79.1 81.2,85.2 a 13.2,13.2 0 0 0 -0.7,4.2 c -0.8,-2 -2,-3.2 -2.3,-3.2 -0.3,0 -6.1,5.5 -7,10.9 a 15.8,15.8 0 0 0 0.2,5.8 c -1.1,-1.8 -2.5,-3 -3.1,-4.8 -0.9,0.5 -5.7,5 -5.8,10.7 a 19.7,19.7 0 0 0 0.7,6.1 c -1.6,-2.9 -3.8,-4.2 -4.1,-4.1 -0.3,0.1 -4,4.1 -4.8,11.1 a 11.8,11.8 0 0 0 0.4,4.6 z m 74.1,-79.7 c 2.8,-3.4 7.6,-6.1 8.2,-5.8 0.6,0.3 -0.8,5.6 -3.9,8.6 -3.1,3 -8.1,6.2 -8.6,6.1 -0.5,-0.1 1.7,-5.9 4.3,-8.9 z m -9.3,13 a 21,21 0 0 0 -5.6,6.4 c -0.5,0.9 -1.9,-5 1.7,-10.6 2.2,-3.5 6.6,-6.6 6.5,-6.2 -0.1,0.4 2.1,6.6 -2.6,10.4 z m -10.1,7.5 c -3.4,5.1 -3.6,3.3 -7.3,8.3 -0.2,0.2 -0.2,-6.5 1.1,-9.4 2.1,-4.7 5.7,-7.4 6.2,-7.5 0.5,-0.1 1.9,5.8 0,8.6 z M 98.3,77.4 c -1.7,3 -3.3,2.3 -6.2,6.7 -0.3,0.4 -1.1,-3.6 0.7,-9.1 a 12.6,12.6 0 0 1 5.9,-6.9 c 0.6,-0.1 1.7,5.7 -0.4,9.3 z M 88,88.1 c -1.8,3.9 -2.9,4 -5,6.4 -0.3,0.4 -1.8,-3.7 -0.4,-8.8 1.4,-5.1 4,-5.6 5.3,-7 1.3,-1.4 2,5.3 0.1,9.4 z m -8.4,6.6 a 10.3,10.3 0 0 1 -0.4,3 c -1.3,4.3 -3.9,6.2 -5.3,8.1 A 15.7,15.7 0 0 1 72.3,100 15.2,15.2 0 0 1 77.5,88.8 c 0.8,0 2.1,3.2 2.1,5.9 z m -8.5,12.8 a 14.9,14.9 0 0 1 -5.1,10.8 17.7,17.7 0 0 1 -2.2,-7.6 c -0.2,-6.3 2.4,-8.5 3.6,-9.7 0.5,1.8 3.7,3.2 3.7,6.5 z M 59,113.8 c 1.8,0.9 3.9,3.4 4.1,8.2 0.2,4.8 -3.2,8.7 -4.6,9.4 -0.9,-3.7 -2.6,-4.4 -2.6,-8 a 18,18 0 0 1 3.1,-9.6 z m 7.3,12.5 c 4.6,-2 9.6,-1.7 9.8,-1.5 0.2,0.2 -1.5,5.9 -5.9,8.2 -4.4,2.3 -9.5,2.7 -10,2.1 -0.5,-0.6 1.5,-6.8 6.1,-8.8 z m -0.4,-3.4 c 0.3,-1.5 3,-6.5 7.1,-8.3 v 0 a 18.4,18.4 0 0 1 9.4,-1.5 c 0.5,0.2 -1.7,5.6 -5.8,7.6 -4.1,2 -6.5,0.9 -10.7,2.2 z m 6.9,-11.8 c 0.2,-0.4 3.5,-6.4 7.4,-8.2 a 17.5,17.5 0 0 1 8.9,-1.4 c 0.3,0.1 -1.8,5.4 -6.2,7.6 -4.4,2.2 -10.3,2.5 -10.1,2 z m 8.9,-11.9 c -0.3,-0.2 4.4,-6.4 8.4,-8.3 a 15.6,15.6 0 0 1 8.4,-1 c 0.3,0.3 -1.9,5.5 -6.5,7.5 A 24.2,24.2 0 0 1 81.7,99.2 Z M 92.4,87.4 c -0.2,-0.2 3.4,-6.3 7.4,-7.9 4,-1.6 7.7,-0.1 8.9,0 1.2,0.1 -1.3,4.5 -6.6,6.4 -5.3,1.9 -9,1.8 -9.7,1.5 z m 12,-11.4 c 0.1,-0.3 4.1,-5.9 8.1,-7.3 a 16.4,16.4 0 0 1 9.2,-0.2 c 0.5,0.2 -2.8,5 -7.7,6.5 -4.9,1.5 -9.7,1.3 -9.6,1 z m 12.1,-9.9 c -0.5,-0.3 4.3,-5.7 8.2,-7.2 a 18,18 0 0 1 8.3,-1 c 0.3,0.2 -2.5,4.9 -7.1,6.7 -4.6,1.8 -8.8,1.9 -9.4,1.5 z M 50.2,175.3 C 28.6,158.1 15.6,132.1 15.6,105 a 89.3,89.3 0 0 1 130.8,-79.2 0.4,0.4 0 0 1 0.1,0.7 97.3,97.3 0 0 0 -10.2,11.4 73.1,73.1 0 0 0 -31.3,-7 74.3,74.3 0 0 0 -74.1,74.1 72.1,72.1 0 0 0 17.9,48.2 23.1,23.1 0 0 0 -1.9,9.4 25.6,25.6 0 0 0 3.3,12.7 z m 0.2,-24.8 H 50.3 A 69.2,69.2 0 0 1 33.9,105 71.2,71.2 0 0 1 105,33.9 70.1,70.1 0 0 1 134.6,40.3 22.6,22.6 0 0 0 130.5,42.9 63.1,63.1 0 0 0 105,37.8 67.3,67.3 0 0 0 37.8,105 c 0,16.1 5,30.2 14.8,42 -0.5,0.9 -1.3,2.1 -2.2,3.5 z m 3.5,-5.6 c -1.3,-1.2 -4.1,-4.3 -4.4,-8.3 V 136 c 0,-4.3 1.9,-8.6 2.4,-9 0.5,-0.4 5.3,3.3 5.4,8.7 a 14.4,14.4 0 0 1 -3.4,9.2 z m 8,-7.2 c 3.9,-1.8 9.6,-1.4 9.3,-1.1 -0.3,0.3 -1.8,5.8 -6.2,8 a 12.1,12.1 0 0 1 -8.7,1.3 c 2.3,-2.6 1.8,-6.4 5.6,-8.2 z m 5.2,46.5 c -0.6,-2.7 -0.4,-6.3 0.5,-7.3 0.9,-1 4.9,-1.2 5,-0.1 0.1,1.1 -1.1,5.4 0.3,10.2 -0.3,0.7 -4.6,0.4 -5.8,-2.8 z m 0.3,-11.1 c -0.3,-2 1.6,-3.9 1.6,-8.2 0,-4.3 -6.6,-12.6 -11.1,-17.3 a 19.5,19.5 0 0 0 7.9,-1.9 c 6.6,-3.1 7.9,-10.1 8.1,-10.4 a 11,11 0 0 0 -3.8,-0.4 l 0.8,-0.4 c 6.4,-3.5 8.1,-11 7.8,-11.1 a 17,17 0 0 0 -4,-0.3 l 2,-0.7 c 6.8,-2.7 8.7,-10.3 8.5,-10.6 a 16.1,16.1 0 0 0 -3.5,-0.4 l 1.9,-0.8 c 6.2,-3.1 8.4,-10.1 8.1,-10.3 a 10.5,10.5 0 0 0 -3.3,-0.4 23.7,23.7 0 0 0 4.5,-1.5 c 6.7,-2.9 8.9,-9.3 8.6,-9.6 a 10.9,10.9 0 0 0 -3,-0.5 34.5,34.5 0 0 0 4.4,-1.3 c 6.6,-2.2 9.2,-8.5 8.8,-8.6 L 108,77.6 a 24.5,24.5 0 0 0 6.6,-1.3 c 7.1,-2.4 9.6,-6.7 9.8,-8.6 a 6,6 0 0 0 -2.3,-0.8 29.3,29.3 0 0 0 4.7,-1.2 c 6.6,-2.7 9.4,-9.3 9.6,-9.8 a 29.3,29.3 0 0 0 3.9,-1.6 l 1.9,-0.9 1.6,1.1 c 1,0.6 1.4,0.8 0.9,1.2 C 122,75 105,99.5 97.6,111.3 c -0.2,0.4 -0.6,0.3 -1.3,0.3 -7.9,-0.6 -12.4,8.9 -8.9,17.8 -0.4,1.8 -4.2,5.3 -4.5,5.5 -0.3,0.2 -1,1.4 0.3,1.3 1.3,-0.1 4.2,-3.2 5.4,-4.5 0.4,0.6 2.2,2 1.3,2.8 A 63.6,63.6 0 0 1 76,145 c -2.6,1.2 4.2,2.1 15.7,-8.3 0.7,-0.6 1.5,2.4 2.5,3.7 -2,6.5 2.9,19.1 2.1,23 a 2.8,2.8 0 0 1 -2.8,2.7 c -11.4,0.3 -12.5,-0.3 -18.3,1.4 -2.7,0.8 -2,2.6 -0.1,2.1 1.9,-0.5 4.6,-1.5 16.9,-0.7 3.1,0.1 6.5,-0.6 6.5,-5.7 0,-5.1 -3.6,-18.4 -2.4,-20.3 a 6.9,6.9 0 0 0 3.5,1.4 c -0.2,4.5 7,19 3.8,27 -1.2,3 -6.4,2.7 -15.4,1.8 -15.3,-1.5 -20.3,1.8 -20.6,0 z m 35.1,9.9 c -5.9,2 -8.3,-4.9 -7.3,-6.4 1,-1.5 4.4,1 7.3,-0.9 2.9,-1.9 3.5,6.1 0,7.3 z m -27,4.3 c -0.8,-3.7 -1.1,-10 0.4,-11.5 1.5,-1.5 4.9,-0.9 4.8,0.2 -0.3,4.3 -2.1,9.2 1.2,14.1 1.3,1.9 -5.2,2.2 -6.4,-2.8 z m 11.4,4.2 c -1.6,-0.4 -6,-7.4 -2.4,-15.8 0.3,-0.8 5.8,-0.3 6.8,0 1,0.3 -0.8,6.8 6.8,9.8 0.7,0.3 -0.1,8.8 -11.2,6 z m 47.2,-23.3 c -2.5,8.8 -3.8,12.3 0,21.9 0.5,1.3 0.9,2.3 -0.2,2.1 -7.7,-1.4 -9.4,-2.6 -33.7,-0.6 -1.7,0.2 0.6,-3.4 0.3,-5.8 2.2,-0.3 5.8,-1.3 6.5,-4.9 0.7,-3.6 -2.1,-7.6 -1.8,-8.2 3.5,-6.7 -0.2,-14.1 -3.1,-26.6 -0.3,-1.2 0.4,-1.7 0.9,-1.1 15.6,16.9 25.5,20.2 30.9,21.8 0.5,0.2 0.4,0.8 0.2,1.4 z M 174,122.1 c -3.3,2.9 -8.3,3.1 -10.3,4.9 -2,1.8 -1.5,2.5 -0.4,5.2 1.1,2.7 1.1,1.7 -1.1,2.3 -2.2,0.6 -4.1,5.8 -8.8,4.9 -1.8,-0.3 -0.5,0.8 0.2,0.9 2.6,0.3 3.7,-0.5 4.6,-1.4 0.9,-0.9 2.2,-2.4 3.6,-2.9 1.4,-0.5 2.9,-0.5 3,0.6 0.1,1.1 -1.9,2.1 -2.7,2.5 1,0.5 3.9,1.9 1.4,3.6 -2.5,1.7 -4.6,-0.5 -4.9,-0.7 -0.3,-0.2 -1.7,-0.2 -1.3,0.3 0.4,0.5 5.2,1.3 4.5,2.2 -3.5,4.7 -0.6,7.5 -1.7,12.3 -1.1,4.8 -7.7,7.5 -12.8,8.4 -17.4,3.1 -34.3,-11.6 -44.2,-22.8 0.9,-2.1 0.8,-4.8 -0.1,-3.8 -0.9,1 -0.7,2.4 -2.8,2.9 -3.9,1 -5.7,-5.9 -6.9,-7.1 -4.8,-4.7 -6.7,-11.4 -3.9,-17.3 2.8,-5.9 9,-4.7 11.4,-1.1 2.4,3.6 1.7,7 3.4,8.3 1.7,1.3 4.8,0.2 5.4,0 0.6,-0.2 1.7,4.3 8,4.1 6.3,-0.2 5.9,-10.7 6.9,-11.6 8.6,-8.4 4.2,-15.9 2.6,-17.6 -1.6,-1.7 1,-3.6 1.5,-3.7 a 13,13 0 0 0 9.4,-7.7 c 0,0 8.4,-0.2 11.4,-6.2 0.8,-1.6 3.3,1.5 8.9,-2.9 a 0.8,0.8 0 0 1 1.4,0.3 c 3.7,8.9 5.2,11.3 4.9,15.8 -0.3,4.5 8.7,21.5 9.4,23.1 0.7,1.6 0.8,3.4 0,4.2 z"
       id="path4885" />
    <path
       class="minerva-base-style"
       d="m 153.8,90 c -4.9,0.2 -10.6,6.2 -12.4,7 -1.8,0.8 -1.3,1.5 -0.2,1.1 1.1,-0.4 5.9,-4.7 10.7,-6.4 4.8,-1.7 3.6,1.8 5,1.6 1.4,-0.2 -0.3,-3.4 -3.1,-3.3 z"
       id="path4887" />
    <path
       class="minerva-base-style"
       d="m 154.9,94.8 c -0.4,0.1 0.4,2.2 -1.7,2.3 -4.6,0.3 -8.3,4.7 -11.1,6 a 12.9,12.9 0 0 1 -3.8,1.4 0.30413813,0.30413813 0 0 0 0.1,0.6 c 11.7,1.6 16.2,1.1 16.3,0.7 0.1,-0.4 -0.6,-1.2 -0.4,-1.7 a 11.3,11.3 0 0 0 0.1,-5.5 c -0.2,-0.8 1.8,-0.3 1.8,-1.3 0,-1 -0.6,-2.6 -1.3,-2.5 z m -1.8,9.3 c -0.2,0.9 -5.5,0.5 -8.3,0.2 -0.7,0 -1.8,-0.1 0.3,-1.4 2.1,-1.3 4.1,-2.8 7.2,-3.4 a 0.8,0.8 0 0 1 0.8,0.6 10.6,10.6 0 0 1 0,4 z"
       id="path4889" />
    <path
       class="minerva-base-style"
       d="m 168.4,120.8 c -0.9,0 -4.5,1.6 -5.9,2.5 -1.4,0.9 -4.4,2.7 -4.2,-0.8 0.1,-1.3 0.9,-4.4 0.9,-5.3 0,-0.9 -1,-0.7 -1.1,0 a 36.9,36.9 0 0 1 -0.7,5.3 c -0.4,1.8 1.2,4 3.6,2.7 2.4,-1.3 4.8,-2.9 7.3,-3.4 0.6,-0.1 0.7,-1 0.1,-1 z"
       id="path4891" />
    <path
       class="minerva-base-style"
       d="m 100.5,133.6 c -0.7,-0.3 -0.5,1.2 -1.4,1 -0.9,-0.2 -0.2,-1.3 -1.8,-3 -1.6,-1.7 -2.8,-1.2 -4.3,-3.6 -1.5,-2.4 -0.3,-12 3.1,-10.8 3.4,1.2 1.6,5 1,8 -0.6,3 2.5,2.8 2.8,2.1 0.3,-0.7 -1.1,-0.9 -1.4,-1.9 -0.3,-1 3.5,-7.6 -1.8,-9.4 -3.8,-1.3 -6.4,3.6 -5.9,8.9 a 8,8 0 0 0 5.1,7.1 c 2.3,0.8 0.6,4 3.7,4 1.4,0 1.7,-2.1 0.9,-2.4 z"
       id="path4893" />
    <path
       class="minerva-base-style"
       d="m 131.3,33.4 c 0.2,0.1 0.3,0 0.5,-0.1 l 6.5,-8.3 a 0.5,0.5 0 0 0 -0.2,-0.6 L 137,24 a 0.4,0.4 0 0 0 -0.5,0.1 l -6.5,8.3 c -0.2,0.2 -0.1,0.5 0.2,0.6 z"
       id="path4895" />
    <path
       class="minerva-base-style"
       d="m 119.2,30 1.1,0.3 a 0.5,0.5 0 0 0 0.5,-0.3 l 3.8,-9.4 A 0.4,0.4 0 0 0 124.3,20 l -1.2,-0.2 h -0.3 l -3.9,9.6 a 0.4,0.4 0 0 0 0.3,0.6 z"
       id="path4897" />
    <path
       class="minerva-base-style"
       d="m 105.8,28.7 h 1.1 c 0.2,0.1 0.4,-0.1 0.4,-0.3 l 1,-10 a 0.5,0.5 0 0 0 -0.4,-0.5 h -1.1 c -0.3,0 -0.4,0.2 -0.5,0.4 l -0.9,10 a 0.4,0.4 0 0 0 0.4,0.4 z"
       id="path4899" />
    <path
       class="minerva-base-style"
       d="m 92.8,29.7 1.1,-0.2 c 0.2,0 0.4,-0.2 0.3,-0.4 l -1.9,-9.9 c 0,-0.2 -0.2,-0.4 -0.4,-0.3 h -1.2 c -0.2,0.1 -0.4,0.3 -0.3,0.5 l 1.9,9.9 c 0,0.3 0.2,0.4 0.5,0.4 z"
       id="path4901" />
    <path
       class="minerva-base-style"
       d="M 79.4,32.8 79.9,33 81,32.6 A 0.4,0.4 0 0 0 81.3,32 l -4.6,-9 a 0.4,0.4 0 0 0 -0.5,-0.2 l -1,0.3 a 0.4,0.4 0 0 0 -0.3,0.6 z"
       id="path4903" />
    <path
       class="minerva-base-style"
       d="m 67,38.5 c 0.1,0.2 0.3,0.2 0.5,0.1 l 1,-0.6 a 0.4,0.4 0 0 0 0.1,-0.6 l -6.7,-7.7 c -0.2,-0.2 -0.4,-0.2 -0.5,-0.1 l -1,0.6 c -0.3,0.1 -0.3,0.4 -0.1,0.6 z"
       id="path4905" />
    <path
       class="minerva-base-style"
       d="m 55.4,46.7 c 0.2,0.1 0.4,0.1 0.5,-0.1 l 0.9,-0.7 a 0.5,0.5 0 0 0 0,-0.7 l -8.5,-5.9 h -0.5 l -0.9,0.8 a 0.5,0.5 0 0 0 0,0.7 z"
       id="path4907" />
    <path
       class="minerva-base-style"
       d="m 45.4,57.1 a 0.4,0.4 0 0 0 0.4,-0.2 L 46.6,56 c 0.2,-0.2 0.1,-0.5 -0.2,-0.6 l -9.8,-3.8 c -0.2,-0.1 -0.4,-0.1 -0.5,0.1 l -0.7,0.9 a 0.4,0.4 0 0 0 0.2,0.7 z"
       id="path4909" />
    <path
       class="minerva-base-style"
       d="m 26.8,67.8 10.5,1.5 c 0.2,0 0.4,-0.1 0.4,-0.3 l 0.6,-1 A 0.4,0.4 0 0 0 38,67.4 L 27.5,65.9 27,66.1 a 5.4,5.4 0 0 1 -0.5,1.1 0.4,0.4 0 0 0 0.3,0.6 z"
       id="path4911" />
    <path
       class="minerva-base-style"
       d="m 21.1,83.7 10.7,-1 a 0.3,0.3 0 0 0 0.3,-0.3 7.6,7.6 0 0 0 0.4,-1.1 0.4,0.4 0 0 0 -0.4,-0.6 l -10.8,1 -0.4,0.3 -0.3,1.2 c 0,0.3 0.2,0.6 0.5,0.5 z"
       id="path4913" />
    <path
       class="minerva-base-style"
       d="m 29.2,96.5 c 0,-0.4 0.1,-0.9 0.1,-1.3 0,-0.4 -0.2,-0.5 -0.5,-0.4 l -10.4,3.6 c -0.2,0.1 -0.3,0.2 -0.3,0.4 0,0.2 -0.1,0.8 -0.1,1.2 a 0.4,0.4 0 0 0 0.6,0.4 l 10.3,-3.6 a 0.3,0.3 0 0 0 0.3,-0.3 z"
       id="path4915" />
    <path
       class="minerva-base-style"
       d="m 28.9,110.8 v -1.3 a 0.5,0.5 0 0 0 -0.7,-0.4 l -9.4,6.3 c -0.2,0 -0.2,0.2 -0.2,0.4 0,0.2 0.1,0.8 0.1,1.2 a 0.5,0.5 0 0 0 0.7,0.3 l 9.4,-6.2 c 0.1,-0.1 0.2,-0.2 0.1,-0.3 z"
       id="path4917" />
    <path
       class="minerva-base-style"
       d="M 31.3,125 31,123.7 a 0.4,0.4 0 0 0 -0.7,-0.2 l -7.7,8.5 c -0.1,0.1 -0.2,0.3 -0.1,0.4 0.1,0.1 0.3,0.8 0.4,1.2 a 0.4,0.4 0 0 0 0.7,0.2 l 7.6,-8.4 c 0.1,-0.1 0.1,-0.2 0.1,-0.4 z"
       id="path4919" />
    <path
       class="minerva-base-style"
       d="M 35.2,137.7 29.8,148 c -0.1,0.1 0,0.3 0,0.4 l 0.7,1.2 a 0.4,0.4 0 0 0 0.7,-0.1 l 5.4,-10.2 c 0,-0.1 0.1,-0.2 0,-0.4 L 36,137.7 a 0.5,0.5 0 0 0 -0.8,0 z"
       id="path4921" />
    <path
       class="minerva-base-style"
       d="m 42.9,149.3 c -0.2,-0.3 -0.7,-0.2 -0.7,0.1 l -2.9,12 c -0.1,0.2 0,0.3 0,0.4 l 1,1 a 0.4,0.4 0 0 0 0.7,-0.1 l 2.8,-11.9 c 0.1,-0.1 0,-0.2 0,-0.3 z"
       id="path4923" />
  </g>
  <rect
     x="366.66599"
     y="1.1830713e-06"
     width="2.6500001"
     height="300"
     style="fill:#666666"
     id="rect4927" />
  <g
     transform="matrix(4.2717277,0,0,4.2717277,435.982,1.1830713e-6)"
     id="g4935">
    <style
       id="style845" />
    <g
       id="g841"
       transform="matrix(1.3333333,0,0,-1.3333333,-60.145965,95.588512)">
      <path
         id="path951"
         style="fill:#007ac2;fill-opacity:1;fill-rule:evenodd;stroke:none;stroke-width:0.0999997"
         d="m 77.016475,39.809688 h -4.983 v 4.955899 h 4.983 z m -7.598,7.5371 V 33.939387 h 13.387 v 13.407401 h -13.387" />
      <path
         id="path953"
         style="fill:#007e73;fill-opacity:1;fill-rule:evenodd;stroke:none;stroke-width:0.0999997"
         d="m 66.368475,62.317586 c 0.339,0.2996 0.508,0.7332 0.508,1.2996 0,0.5382 -0.169,0.9687 -0.508,1.291 -0.339,0.3234 -0.804,0.4902 -1.394,0.5031 h -2.205 v -3.5441 h 2.137 c 0.636,0 1.123,0.1496 1.462,0.4504" />
      <path
         id="path955"
         style="fill:#007e73;fill-opacity:1;fill-rule:evenodd;stroke:none;stroke-width:0.0999997"
         d="m 84.587475,61.628086 v 0.5273 c 0,1.0254 -0.24,1.8219 -0.722,2.3907 -0.481,0.5683 -1.164,0.8574 -2.048,0.8652 h -1.387 v -7.0762 h 1.251 c 0.917,0 1.63,0.2852 2.14,0.8555 0.511,0.5711 0.766,1.3836 0.766,2.4375" />
      <path
         id="path957"
         style="fill:#007e73;fill-opacity:1;fill-rule:evenodd;stroke:none;stroke-width:0.0999997"
         d="m 93.784475,65.411286 h -4.398 v -3.0922 h 3.785 v -0.9723 h -3.785 v -3.9843 h -1.191 v 9.0215 h 5.589 z m -0.603,-41.790998 h -28.364 v 28.3633 h 28.364 z m -30.412,33.742198 h -1.191 v 9.0215 h 3.328 c 0.988,0 1.761,-0.2524 2.321,-0.7559 0.559,-0.5039 0.839,-1.1711 0.839,-2.0012 0,-0.8758 -0.274,-1.5508 -0.821,-2.0234 -0.548,-0.4727 -1.331,-0.709 -2.351,-0.709 h -2.125 z m -3.926,0 h -1.19 v 3.5136 l 0.112,3.7918 -2.962,-7.3054 h -0.91 l -2.957,7.2871 0.119,-3.7735 v -3.5136 h -1.191 v 9.0215 h 1.537 l 2.95,-7.3614 2.949,7.3614 h 1.543 z m 10.939,4.9566 c 0,0.8391 0.15,1.5766 0.449,2.2121 0.3,0.6367 0.724,1.125 1.274,1.466 0.549,0.3407 1.185,0.5106 1.908,0.5106 0.959,0 1.727,-0.2676 2.306,-0.8016 0.578,-0.5351 0.914,-1.2765 1.009,-2.2219 h -1.196 c -0.103,0.7208 -0.327,1.243 -0.672,1.5665 -0.344,0.3234 -0.827,0.4843 -1.447,0.4843 -0.76,0 -1.355,-0.2812 -1.787,-0.8437 -0.432,-0.5613 -0.648,-1.3621 -0.648,-2.3992 v -0.875 c 0,-0.9797 0.205,-1.759 0.614,-2.3379 0.409,-0.5782 0.98,-0.8684 1.716,-0.8684 0.661,0 1.168,0.1504 1.521,0.4492 0.354,0.3 0.588,0.8215 0.703,1.5645 h 1.196 c -0.111,-0.9539 -0.463,-1.6903 -1.056,-2.209 -0.593,-0.5184 -1.381,-0.7773 -2.364,-0.7773 -1.066,0 -1.92,0.382 -2.562,1.1464 -0.643,0.7637 -0.964,1.7864 -0.964,3.0676 z m 9.457,4.0649 h 2.547 c 0.785,0 1.479,-0.1731 2.082,-0.5207 0.604,-0.3465 1.069,-0.8399 1.398,-1.4805 0.328,-0.6406 0.494,-1.3762 0.499,-2.2059 v -0.5761 c 0,-0.8508 -0.165,-1.5969 -0.494,-2.2375 -0.328,-0.6395 -0.796,-1.1317 -1.406,-1.4747 -0.609,-0.3425 -1.319,-0.5183 -2.129,-0.5261 h -2.497 z m -34.13,5.3074 V 19.019488 h 52.671 v 52.671898 h -52.671" />
    </g>
  </g>
  <g
     transform="translate(802.64288,41.43462)"
     id="g4945">
    <g
       transform="translate(0,99.060381)"
       style="fill:#006c66"
       id="g4939">
      <path
         d="M 5.5,-62 H 22.094 L 37.922,-17.029 53.656,-62 H 70.328 V 0 H 57.594 V -16.951 L 58.859,-46.213 42.234,0 h -8.718 l -16.594,-46.166 1.281,29.215 V 0 H 5.5 Z m 124.063,62 -4.282,-12.719 h -22.25 L 98.797,0 h -13.5 l 22.937,-62 H 120 L 143.063,0 Z M 114.109,-46.339 106.453,-23 h 15.406 z M 168,-62 179.547,-40.631 191.109,-62 h 14.594 L 187.766,-31.259 206.172,0 H 191.391 L 179.547,-21.715 167.703,0 H 152.938 L 171.344,-31.259 153.391,-62 Z m 107.328,40.297 H 264.203 V 0 H 251.5 v -62 h 24.031 q 6.953,0 12.219,2.564 5.266,2.564 8.102,7.281 2.836,4.718 2.836,10.745 v 0 q 0,9.151 -6.204,14.429 -6.203,5.278 -17.156,5.278 z M 264.203,-51.719 V -32 h 11.328 q 5.047,0 7.688,-2.415 2.64,-2.415 2.64,-6.91 v 0 q 0,-4.607 -2.664,-7.461 -2.664,-2.853 -7.367,-2.933 v 0 z m 65,-10.281 v 51.797 h 26.953 V 0 H 316.5 v -62 z m 82.36,62 -4.282,-12.719 h -22.25 L 380.797,0 h -13.5 l 22.937,-62 H 402 L 425.063,0 Z M 396.109,-46.339 388.453,-23 h 15.406 z M 489.609,-62 V 0 H 476.906 L 452.203,-40.804 V 0 H 439.5 v -62 h 12.703 l 24.75,40.883 V -62 Z m 55.563,41.625 h 12.703 q -0.719,9.953 -7.344,15.664 Q 543.906,1 533.078,1 v 0 q -11.859,0 -18.648,-7.937 -6.789,-7.937 -6.789,-21.791 v 0 -3.747 q 0,-8.846 3.132,-15.579 3.133,-6.732 8.954,-10.339 5.82,-3.607 13.507,-3.607 v 0 q 10.672,0 17.188,5.719 6.516,5.718 7.531,16.047 v 0 h -12.687 q -0.469,-5.969 -3.328,-8.657 -2.86,-2.687 -8.704,-2.687 v 0 q -6.343,0 -9.492,4.513 -3.148,4.514 -3.242,14.006 v 0 4.622 q 0,9.911 3.031,14.494 3.032,4.584 9.547,4.584 v 0 q 5.875,0 8.774,-2.688 2.898,-2.687 3.32,-8.328 z M 609.625,0 l -15.828,-24.875 -6.594,7.154 V 0 H 574.5 v -62 h 12.703 v 28.099 l 5.578,-7.705 L 608.484,-62 h 15.61 L 602.219,-34.451 624.734,0 Z"
         id="path4937" />
    </g>
    <g
       transform="translate(0,179.07038)"
       style="fill:#006c66"
       id="g4943">
      <path
         d="m 35.781,-15.484 h 6.61 Q 41.453,-7.578 36.555,-3.289 31.656,1 23.516,1 v 0 q -8.813,0 -14.133,-6.311 -5.32,-6.31 -5.32,-16.875 v 0 -4.768 q 0,-6.919 2.484,-12.17 2.484,-5.251 7.023,-8.063 Q 18.109,-50 24.094,-50 v 0 q 7.937,0 12.719,4.43 4.781,4.429 5.578,12.257 v 0 h -6.61 q -0.843,-5.953 -3.703,-8.617 -2.859,-2.664 -7.984,-2.664 v 0 q -6.281,0 -9.852,4.632 -3.57,4.633 -3.57,13.181 v 0 4.796 q 0,8.081 3.383,12.845 3.383,4.765 9.461,4.765 v 0 q 5.468,0 8.39,-2.477 2.922,-2.476 3.875,-8.632 z m 56.282,-10.551 v 3.132 q 0,7.293 -2.461,12.731 -2.461,5.438 -6.977,8.305 Q 78.109,1 72.094,1 v 0 q -5.875,0 -10.422,-2.883 -4.547,-2.882 -7.055,-8.219 -2.508,-5.337 -2.586,-12.349 v 0 -3.584 q 0,-7.152 2.5,-12.645 2.5,-5.492 7.063,-8.406 Q 66.156,-50 72.031,-50 v 0 q 5.985,0 10.547,2.883 4.563,2.882 7.024,8.352 2.461,5.469 2.461,12.73 z m -6.532,3.614 v -3.675 q 0,-8.828 -3.554,-13.546 -3.555,-4.717 -9.946,-4.717 v 0 q -6.218,0 -9.789,4.717 -3.57,4.718 -3.679,13.095 v 0 3.643 q 0,8.548 3.609,13.437 3.609,4.889 9.922,4.889 v 0 q 6.359,0 9.844,-4.617 3.484,-4.616 3.593,-13.226 z M 104.781,-50 h 8.469 L 129.516,-9.199 145.797,-50 h 8.5 V 0 h -6.563 V -19.466 L 148.359,-40.487 132.016,0 H 127 l -16.312,-40.392 0.656,20.926 V 0 h -6.563 z m 82.282,30.359 H 175.344 V 0 h -6.563 v -50 h 18.344 q 8.172,0 12.805,4.183 4.633,4.182 4.633,11.059 v 0 q 0,7.269 -4.532,11.193 -4.531,3.924 -12.968,3.924 z M 175.344,-44.594 V -25 h 11.781 q 5.266,0 8.07,-2.494 2.805,-2.495 2.805,-7.185 v 0 q 0,-4.471 -2.805,-7.146 -2.804,-2.675 -7.695,-2.769 v 0 z M 244.219,-50 h 6.594 v 34.211 q -0.032,7.107 -4.422,11.632 Q 242,0.368 234.469,0.921 v 0 L 232.734,1 q -8.171,0 -13.023,-4.462 -4.852,-4.462 -4.93,-12.264 v 0 V -50 h 6.5 v 34.112 q 0,5.456 2.977,8.485 2.976,3.028 8.476,3.028 v 0 q 5.563,0 8.524,-3.005 2.961,-3.005 2.961,-8.476 v 0 z m 53.937,0 v 5.406 H 282.172 V 0 h -6.531 V -44.594 H 259.672 V -50 Z m 17.657,0 V 0 h -6.563 v -50 z m 53.218,0 V 0 h -6.609 L 337.375,-38.524 V 0 h -6.594 v -50 h 6.594 L 362.5,-11.303 V -50 Z m 50.485,26 v 17.914 q -2.532,3.558 -7.055,5.322 Q 407.938,1 401.922,1 v 0 q -6.094,0 -10.805,-2.852 -4.711,-2.851 -7.297,-8.094 -2.586,-5.244 -2.648,-12.162 v 0 -4.332 q 0,-11.219 5.242,-17.39 5.242,-6.17 14.758,-6.17 v 0 q 7.781,0 12.531,3.984 4.75,3.985 5.813,11.297 v 0 h -6.563 q -1.844,-9.875 -11.75,-9.875 v 0 q -6.594,0 -10,4.617 -3.406,4.617 -3.437,13.367 v 0 4.049 q 0,8.345 3.828,13.266 3.828,4.92 10.359,4.92 v 0 q 3.688,0 6.461,-0.794 2.774,-0.795 4.57,-2.671 v 0 -10.832 H 401.469 V -24 Z m 31.937,10.992 v 0 q 0,-3.584 2,-6.584 2,-2.999 7.641,-6.988 v 0 q -3.313,-4.02 -4.446,-6.475 -1.132,-2.454 -1.132,-4.869 v 0 q 0,-5.672 3.351,-8.874 3.352,-3.202 9.102,-3.202 v 0 q 5.125,0 8.469,2.984 3.343,2.984 3.343,7.518 v 0 q 0,2.992 -1.515,5.532 -1.516,2.54 -5.313,5.345 v 0 l -3.656,2.695 11.078,13.183 q 2.313,-4.426 2.313,-9.848 v 0 h 5.718 q 0,8.695 -4.203,14.413 v 0 L 491.313,0 h -7.594 l -3.313,-3.612 q -2.531,2.259 -5.929,3.436 Q 471.078,1 467.547,1 v 0 q -7.281,0 -11.688,-3.857 -4.406,-3.856 -4.406,-10.151 z m 16.094,8.836 v 0 q 5.031,0 9.203,-3.811 v 0 l -12.141,-14.468 -1.125,0.81 q -5.703,4.188 -5.703,8.625 v 0 q 0,4.017 2.61,6.431 2.609,2.413 7.156,2.413 z m -5.703,-33.962 v 0 q 0,3.269 4.031,8.172 v 0 l 4.031,-2.817 q 2.328,-1.635 3.18,-3.114 0.852,-1.478 0.852,-3.596 v 0 q 0,-2.288 -1.704,-3.798 -1.703,-1.51 -4.312,-1.51 v 0 q -2.797,0 -4.438,1.892 -1.64,1.891 -1.64,4.771 z M 534.547,0 h -13.766 v -50 h 14.047 q 6.485,0 11.477,2.881 4.992,2.88 7.711,8.21 2.718,5.33 2.75,12.221 v 0 3.203 q 0,7.064 -2.719,12.386 -2.719,5.322 -7.758,8.179 Q 541.25,-0.063 534.547,0 Z M 535,-44.594 h -7.656 v 39.235 h 6.906 q 7.578,0 11.805,-4.747 4.226,-4.748 4.226,-13.519 v 0 -2.923 q 0,-8.52 -3.984,-13.251 -3.984,-4.732 -11.297,-4.795 z M 600.016,0 595.25,-12.594 H 574.406 L 569.719,0 h -6.766 l 19.016,-50 h 5.734 L 606.734,0 Z M 584.828,-41.868 576.391,-18 h 16.922 z M 647.156,-50 v 5.406 H 631.172 V 0 h -6.531 V -44.594 H 608.672 V -50 Z m 38.86,50 -4.766,-12.594 H 660.406 L 655.719,0 h -6.766 l 19.016,-50 h 5.734 L 692.734,0 Z M 670.828,-41.868 662.391,-18 h 16.922 z M 750.219,-27 v 5.359 H 729.344 V 0 h -6.563 v -50 h 30.828 v 5.406 H 729.344 V -27 Z M 791.016,0 786.25,-12.594 H 765.406 L 760.719,0 h -6.766 l 19.016,-50 h 5.734 L 797.734,0 Z M 775.828,-41.868 767.391,-18 h 16.922 z m 60.953,26.384 h 6.61 q -0.938,7.906 -5.836,12.195 Q 832.656,1 824.516,1 v 0 q -8.813,0 -14.133,-6.311 -5.32,-6.31 -5.32,-16.875 v 0 -4.768 q 0,-6.919 2.484,-12.17 2.484,-5.251 7.023,-8.063 Q 819.109,-50 825.094,-50 v 0 q 7.937,0 12.719,4.43 4.781,4.429 5.578,12.257 v 0 h -6.61 q -0.843,-5.953 -3.703,-8.617 -2.859,-2.664 -7.984,-2.664 v 0 q -6.281,0 -9.852,4.632 -3.57,4.633 -3.57,13.181 v 0 4.796 q 0,8.081 3.383,12.845 3.383,4.765 9.461,4.765 v 0 q 5.468,0 8.39,-2.477 2.922,-2.476 3.875,-8.632 z M 861.813,-50 V 0 h -6.563 v -50 z m 21.562,0 v 44.641 h 23.578 V 0 h -30.172 v -50 z m 40.438,0 V 0 h -6.563 v -50 z m 48.343,0 v 5.406 H 956.172 V 0 h -6.531 V -44.594 H 933.672 V -50 Z m 12.875,0 12.922,25.102 12.985,-25.102 h 7.453 l -17.157,31.35 V 0 h -6.562 V -18.65 L 977.516,-50 Z"
         id="path4941" />
    </g>
  </g>
</svg>
