<?xml version="1.0" encoding="UTF-8" standalone="no"?>
<svg
   viewBox="0 0 735.97685 300"
   version="1.1"
   id="svg4947"
   width="735.97687"
   height="300"
   xmlns="http://www.w3.org/2000/svg"
   xmlns:svg="http://www.w3.org/2000/svg">
  <defs
     id="defs837" />
  <defs
     id="defs4879">
    <style
       id="style4877">.minerva-base-style{}</style>
  </defs>
  <g
     transform="matrix(1.4285714,0,0,1.4285714,0,1.1830713e-6)"
     style="fill:#006c66"
     id="g4925">
    <title
       id="title4881">minerva</title>
    <path
       d="M 105,0 A 105,105 0 1 0 210,105 105.1,105.1 0 0 0 105,0 Z m 0,207.1 A 102.1,102.1 0 1 1 207.1,105 102.2,102.2 0 0 1 105,207.1 Z"
       id="path4883" />
    <path
       class="minerva-base-style"
       d="m 166.6,97 c -1.4,-3.1 -0.5,-5.1 -0.9,-7.3 -0.4,-2.2 -2.7,-7 -4.3,-10.8 -0.7,-1.7 3.8,-1.3 0.4,-7.6 0,-0.2 4.7,-2 0,-5.5 a 26.4,26.4 0 0 1 -6,-6.7 1,1 0 0 1 0,-1.3 c 2.7,-2.4 2.8,-5.8 -0.1,-7.5 -2.9,-1.7 -4.5,0 -6.7,1.4 -0.7,0.5 -1.1,0.8 -1.9,0.5 L 145.3,51 c 2.7,-2.6 3.3,-5.2 3.1,-5.6 -0.2,-0.4 -4.6,-1.3 -10.2,1 l -0.4,-0.3 c 2.3,-3.9 1,-6.7 0.9,-6.9 h -0.1 A 81,81 0 0 1 151,25.9 h 0.1 c 0.2,-0.3 0.3,-0.6 -0.2,-0.9 l -1,-0.6 A 92.4,92.4 0 0 0 12.7,105 c 0,29.5 15,57.9 39.4,75.6 a 13.5,13.5 0 0 0 2.8,1.6 1.1,1.1 0 0 0 1.1,-0.2 l 0.3,-0.5 a 1,1 0 0 0 0.3,-0.8 c 0,-0.7 -0.9,-1.3 -2.1,-3 a 27.7,27.7 0 0 1 -4.7,-15.1 22.1,22.1 0 0 1 4.5,-13.7 c 3.7,3.9 11.7,10.9 11.5,17.4 -0.2,6.5 -6.9,6.8 -5.4,12.2 0.9,3.4 3.4,2 3.9,4.6 0.7,4.4 6.7,7.3 9.3,6.9 0.7,-0.1 1.2,0.4 2.4,1.7 1.2,1.3 6.2,1.6 8.2,1.2 2,-0.4 4.1,1.4 8,0.9 3.9,-0.5 6.1,-0.9 8.2,-0.9 2.1,0 22.5,-0.3 36,1.8 2.4,0.4 3.1,-0.7 2.1,-2.5 -4.9,-8.6 -5.6,-15.8 -2.8,-25 5,0.4 12.2,1.7 21.6,-4 a 11,11 0 0 0 5.1,-9.5 c -0.1,-2.1 -1,-4.7 -0.5,-6.7 0.5,-2 1.3,-2.7 2.1,-3.2 3.6,-2.6 1,-4.6 0.4,-4.8 a 3.4,3.4 0 0 0 1.1,-4.6 c -0.7,-0.7 -2.7,-6.2 -0.4,-7.3 2.3,-1.1 5.3,-1.8 8.1,-3.1 a 4.5,4.5 0 0 0 2.4,-6 c -1.4,-3.6 -8.8,-20.6 -9,-21 z M 64.7,179.1 c -0.7,0.2 -2.9,0.3 -2.4,-2.7 0.5,-3 2.3,-2.6 3.3,-1.6 1,1 -0.7,2.8 -0.9,4.3 z m 87,-125.9 c 1.2,-0.8 2.5,-1.1 3.3,-0.4 2.6,2.6 -2.9,4.1 -1.8,6.1 a 30.7,30.7 0 0 0 7.5,8.4 c 1.2,1 1.4,3.1 -3.3,4.1 -4.7,1 -23.6,5.9 -33.6,16.5 -12.5,13.2 -20.4,30.3 -21.5,28 -1.1,-2.3 -3.6,-2.8 -3.2,-3.5 17.9,-30.8 46,-55.1 52.6,-59.2 z m 8.2,21.7 c -1,2.9 -9.1,5.5 -8.7,3.5 0.4,-2 0,-2.2 0.6,-2.3 0.6,-0.1 3.5,-1.1 7.5,-2.1 0.4,-0.1 0.9,0.1 0.6,0.9 z m -20.6,5.3 c -0.2,-1.2 8.5,-4.1 8.8,-3.3 0.3,0.8 -1.8,6 -4.7,7 -2.9,1 -4.7,0.9 -4.6,0.4 a 11,11 0 0 0 0.5,-4.1 z M 119,125.8 c -4,2.5 -6.2,-2.2 -6.8,-3.1 a 3.7,3.7 0 0 1 -0.5,-3.1 c 0.3,-1.4 0.5,-3.3 -0.4,-9.3 -0.4,-2.7 5,-9.2 6.3,-10.4 1.3,-1.2 3.1,0.6 3.2,2.6 0.3,3.6 -1.8,5.6 -3.9,7.2 -2.1,1.6 -3.1,4.4 -2.6,5.1 a 1.5,1.5 0 0 0 1.9,-0.9 c 1.5,-3.3 6,-4.9 6.7,-6.7 0.7,-1.8 0.3,-4.4 0.2,-5.6 -0.1,-1.2 0.9,-1.2 1.6,-1.1 0.7,0.1 1.4,1.4 1.8,2.7 2.9,7.5 -4.3,12 -5.5,13.8 -1.2,1.8 1.1,6.9 -2,8.8 z m 6.1,-29.1 c -2.2,1.5 -5.3,-0.5 -4.7,-1.4 a 43.7,43.7 0 0 1 11.5,-11 c 3.4,-2.1 3.8,-2.3 4,-1.1 a 10.6,10.6 0 0 1 -2.6,7.5 c -2.3,2.5 -4.6,2.3 -5.8,2.6 -1.2,0.3 -0.8,2.3 -2.4,3.4 z m -19.3,25.6 c -1,-0.2 -1.4,-2.1 -1.2,-2.9 0.2,-0.8 3.1,-5.2 4,-6.4 a 0.5,0.5 0 0 1 0.8,0.3 c 0.6,4.1 0,9.8 -3.6,9 z M 138,48.2 a 17.7,17.7 0 0 1 7.5,-1.6 c 0.8,0.1 -1.9,4.8 -6.6,6.8 -4.7,2 -8.5,2.5 -8.9,2.3 -0.4,-0.2 4.1,-5.8 8,-7.5 z m -83.3,78.3 c -1.5,-1.7 -2.8,-2.6 -2.9,-2.5 A 22.4,22.4 0 0 0 48.2,132.9 65.4,65.4 0 0 1 40.7,105 C 39.3,69.6 69,41.1 105.2,41.2 a 56.8,56.8 0 0 1 22.4,4.6 31.3,31.3 0 0 0 -3.7,6.6 c 0,-1.9 -0.5,-3.4 -0.4,-4.6 0.1,-1.2 -5.1,0.9 -9.7,8.3 a 19.9,19.9 0 0 0 -2.2,5.3 c -0.1,-2.8 -0.7,-4.9 -0.9,-4.9 a 16.1,16.1 0 0 0 -8.5,8.8 22.4,22.4 0 0 0 -1.1,3.4 c -0.2,-1.9 -0.7,-3.2 -0.9,-3.2 -0.2,0 -5.9,2.3 -8.6,8.9 A 15.4,15.4 0 0 0 90.5,79 C 90,76.7 89.1,75.3 88.8,75.6 86.9,78 83.1,79.1 81.2,85.2 a 13.2,13.2 0 0 0 -0.7,4.2 c -0.8,-2 -2,-3.2 -2.3,-3.2 -0.3,0 -6.1,5.5 -7,10.9 a 15.8,15.8 0 0 0 0.2,5.8 c -1.1,-1.8 -2.5,-3 -3.1,-4.8 -0.9,0.5 -5.7,5 -5.8,10.7 a 19.7,19.7 0 0 0 0.7,6.1 c -1.6,-2.9 -3.8,-4.2 -4.1,-4.1 -0.3,0.1 -4,4.1 -4.8,11.1 a 11.8,11.8 0 0 0 0.4,4.6 z m 74.1,-79.7 c 2.8,-3.4 7.6,-6.1 8.2,-5.8 0.6,0.3 -0.8,5.6 -3.9,8.6 -3.1,3 -8.1,6.2 -8.6,6.1 -0.5,-0.1 1.7,-5.9 4.3,-8.9 z m -9.3,13 a 21,21 0 0 0 -5.6,6.4 c -0.5,0.9 -1.9,-5 1.7,-10.6 2.2,-3.5 6.6,-6.6 6.5,-6.2 -0.1,0.4 2.1,6.6 -2.6,10.4 z m -10.1,7.5 c -3.4,5.1 -3.6,3.3 -7.3,8.3 -0.2,0.2 -0.2,-6.5 1.1,-9.4 2.1,-4.7 5.7,-7.4 6.2,-7.5 0.5,-0.1 1.9,5.8 0,8.6 z M 98.3,77.4 c -1.7,3 -3.3,2.3 -6.2,6.7 -0.3,0.4 -1.1,-3.6 0.7,-9.1 a 12.6,12.6 0 0 1 5.9,-6.9 c 0.6,-0.1 1.7,5.7 -0.4,9.3 z M 88,88.1 c -1.8,3.9 -2.9,4 -5,6.4 -0.3,0.4 -1.8,-3.7 -0.4,-8.8 1.4,-5.1 4,-5.6 5.3,-7 1.3,-1.4 2,5.3 0.1,9.4 z m -8.4,6.6 a 10.3,10.3 0 0 1 -0.4,3 c -1.3,4.3 -3.9,6.2 -5.3,8.1 A 15.7,15.7 0 0 1 72.3,100 15.2,15.2 0 0 1 77.5,88.8 c 0.8,0 2.1,3.2 2.1,5.9 z m -8.5,12.8 a 14.9,14.9 0 0 1 -5.1,10.8 17.7,17.7 0 0 1 -2.2,-7.6 c -0.2,-6.3 2.4,-8.5 3.6,-9.7 0.5,1.8 3.7,3.2 3.7,6.5 z M 59,113.8 c 1.8,0.9 3.9,3.4 4.1,8.2 0.2,4.8 -3.2,8.7 -4.6,9.4 -0.9,-3.7 -2.6,-4.4 -2.6,-8 a 18,18 0 0 1 3.1,-9.6 z m 7.3,12.5 c 4.6,-2 9.6,-1.7 9.8,-1.5 0.2,0.2 -1.5,5.9 -5.9,8.2 -4.4,2.3 -9.5,2.7 -10,2.1 -0.5,-0.6 1.5,-6.8 6.1,-8.8 z m -0.4,-3.4 c 0.3,-1.5 3,-6.5 7.1,-8.3 v 0 a 18.4,18.4 0 0 1 9.4,-1.5 c 0.5,0.2 -1.7,5.6 -5.8,7.6 -4.1,2 -6.5,0.9 -10.7,2.2 z m 6.9,-11.8 c 0.2,-0.4 3.5,-6.4 7.4,-8.2 a 17.5,17.5 0 0 1 8.9,-1.4 c 0.3,0.1 -1.8,5.4 -6.2,7.6 -4.4,2.2 -10.3,2.5 -10.1,2 z m 8.9,-11.9 c -0.3,-0.2 4.4,-6.4 8.4,-8.3 a 15.6,15.6 0 0 1 8.4,-1 c 0.3,0.3 -1.9,5.5 -6.5,7.5 A 24.2,24.2 0 0 1 81.7,99.2 Z M 92.4,87.4 c -0.2,-0.2 3.4,-6.3 7.4,-7.9 4,-1.6 7.7,-0.1 8.9,0 1.2,0.1 -1.3,4.5 -6.6,6.4 -5.3,1.9 -9,1.8 -9.7,1.5 z m 12,-11.4 c 0.1,-0.3 4.1,-5.9 8.1,-7.3 a 16.4,16.4 0 0 1 9.2,-0.2 c 0.5,0.2 -2.8,5 -7.7,6.5 -4.9,1.5 -9.7,1.3 -9.6,1 z m 12.1,-9.9 c -0.5,-0.3 4.3,-5.7 8.2,-7.2 a 18,18 0 0 1 8.3,-1 c 0.3,0.2 -2.5,4.9 -7.1,6.7 -4.6,1.8 -8.8,1.9 -9.4,1.5 z M 50.2,175.3 C 28.6,158.1 15.6,132.1 15.6,105 a 89.3,89.3 0 0 1 130.8,-79.2 0.4,0.4 0 0 1 0.1,0.7 97.3,97.3 0 0 0 -10.2,11.4 73.1,73.1 0 0 0 -31.3,-7 74.3,74.3 0 0 0 -74.1,74.1 72.1,72.1 0 0 0 17.9,48.2 23.1,23.1 0 0 0 -1.9,9.4 25.6,25.6 0 0 0 3.3,12.7 z m 0.2,-24.8 H 50.3 A 69.2,69.2 0 0 1 33.9,105 71.2,71.2 0 0 1 105,33.9 70.1,70.1 0 0 1 134.6,40.3 22.6,22.6 0 0 0 130.5,42.9 63.1,63.1 0 0 0 105,37.8 67.3,67.3 0 0 0 37.8,105 c 0,16.1 5,30.2 14.8,42 -0.5,0.9 -1.3,2.1 -2.2,3.5 z m 3.5,-5.6 c -1.3,-1.2 -4.1,-4.3 -4.4,-8.3 V 136 c 0,-4.3 1.9,-8.6 2.4,-9 0.5,-0.4 5.3,3.3 5.4,8.7 a 14.4,14.4 0 0 1 -3.4,9.2 z m 8,-7.2 c 3.9,-1.8 9.6,-1.4 9.3,-1.1 -0.3,0.3 -1.8,5.8 -6.2,8 a 12.1,12.1 0 0 1 -8.7,1.3 c 2.3,-2.6 1.8,-6.4 5.6,-8.2 z m 5.2,46.5 c -0.6,-2.7 -0.4,-6.3 0.5,-7.3 0.9,-1 4.9,-1.2 5,-0.1 0.1,1.1 -1.1,5.4 0.3,10.2 -0.3,0.7 -4.6,0.4 -5.8,-2.8 z m 0.3,-11.1 c -0.3,-2 1.6,-3.9 1.6,-8.2 0,-4.3 -6.6,-12.6 -11.1,-17.3 a 19.5,19.5 0 0 0 7.9,-1.9 c 6.6,-3.1 7.9,-10.1 8.1,-10.4 a 11,11 0 0 0 -3.8,-0.4 l 0.8,-0.4 c 6.4,-3.5 8.1,-11 7.8,-11.1 a 17,17 0 0 0 -4,-0.3 l 2,-0.7 c 6.8,-2.7 8.7,-10.3 8.5,-10.6 a 16.1,16.1 0 0 0 -3.5,-0.4 l 1.9,-0.8 c 6.2,-3.1 8.4,-10.1 8.1,-10.3 a 10.5,10.5 0 0 0 -3.3,-0.4 23.7,23.7 0 0 0 4.5,-1.5 c 6.7,-2.9 8.9,-9.3 8.6,-9.6 a 10.9,10.9 0 0 0 -3,-0.5 34.5,34.5 0 0 0 4.4,-1.3 c 6.6,-2.2 9.2,-8.5 8.8,-8.6 L 108,77.6 a 24.5,24.5 0 0 0 6.6,-1.3 c 7.1,-2.4 9.6,-6.7 9.8,-8.6 a 6,6 0 0 0 -2.3,-0.8 29.3,29.3 0 0 0 4.7,-1.2 c 6.6,-2.7 9.4,-9.3 9.6,-9.8 a 29.3,29.3 0 0 0 3.9,-1.6 l 1.9,-0.9 1.6,1.1 c 1,0.6 1.4,0.8 0.9,1.2 C 122,75 105,99.5 97.6,111.3 c -0.2,0.4 -0.6,0.3 -1.3,0.3 -7.9,-0.6 -12.4,8.9 -8.9,17.8 -0.4,1.8 -4.2,5.3 -4.5,5.5 -0.3,0.2 -1,1.4 0.3,1.3 1.3,-0.1 4.2,-3.2 5.4,-4.5 0.4,0.6 2.2,2 1.3,2.8 A 63.6,63.6 0 0 1 76,145 c -2.6,1.2 4.2,2.1 15.7,-8.3 0.7,-0.6 1.5,2.4 2.5,3.7 -2,6.5 2.9,19.1 2.1,23 a 2.8,2.8 0 0 1 -2.8,2.7 c -11.4,0.3 -12.5,-0.3 -18.3,1.4 -2.7,0.8 -2,2.6 -0.1,2.1 1.9,-0.5 4.6,-1.5 16.9,-0.7 3.1,0.1 6.5,-0.6 6.5,-5.7 0,-5.1 -3.6,-18.4 -2.4,-20.3 a 6.9,6.9 0 0 0 3.5,1.4 c -0.2,4.5 7,19 3.8,27 -1.2,3 -6.4,2.7 -15.4,1.8 -15.3,-1.5 -20.3,1.8 -20.6,0 z m 35.1,9.9 c -5.9,2 -8.3,-4.9 -7.3,-6.4 1,-1.5 4.4,1 7.3,-0.9 2.9,-1.9 3.5,6.1 0,7.3 z m -27,4.3 c -0.8,-3.7 -1.1,-10 0.4,-11.5 1.5,-1.5 4.9,-0.9 4.8,0.2 -0.3,4.3 -2.1,9.2 1.2,14.1 1.3,1.9 -5.2,2.2 -6.4,-2.8 z m 11.4,4.2 c -1.6,-0.4 -6,-7.4 -2.4,-15.8 0.3,-0.8 5.8,-0.3 6.8,0 1,0.3 -0.8,6.8 6.8,9.8 0.7,0.3 -0.1,8.8 -11.2,6 z m 47.2,-23.3 c -2.5,8.8 -3.8,12.3 0,21.9 0.5,1.3 0.9,2.3 -0.2,2.1 -7.7,-1.4 -9.4,-2.6 -33.7,-0.6 -1.7,0.2 0.6,-3.4 0.3,-5.8 2.2,-0.3 5.8,-1.3 6.5,-4.9 0.7,-3.6 -2.1,-7.6 -1.8,-8.2 3.5,-6.7 -0.2,-14.1 -3.1,-26.6 -0.3,-1.2 0.4,-1.7 0.9,-1.1 15.6,16.9 25.5,20.2 30.9,21.8 0.5,0.2 0.4,0.8 0.2,1.4 z M 174,122.1 c -3.3,2.9 -8.3,3.1 -10.3,4.9 -2,1.8 -1.5,2.5 -0.4,5.2 1.1,2.7 1.1,1.7 -1.1,2.3 -2.2,0.6 -4.1,5.8 -8.8,4.9 -1.8,-0.3 -0.5,0.8 0.2,0.9 2.6,0.3 3.7,-0.5 4.6,-1.4 0.9,-0.9 2.2,-2.4 3.6,-2.9 1.4,-0.5 2.9,-0.5 3,0.6 0.1,1.1 -1.9,2.1 -2.7,2.5 1,0.5 3.9,1.9 1.4,3.6 -2.5,1.7 -4.6,-0.5 -4.9,-0.7 -0.3,-0.2 -1.7,-0.2 -1.3,0.3 0.4,0.5 5.2,1.3 4.5,2.2 -3.5,4.7 -0.6,7.5 -1.7,12.3 -1.1,4.8 -7.7,7.5 -12.8,8.4 -17.4,3.1 -34.3,-11.6 -44.2,-22.8 0.9,-2.1 0.8,-4.8 -0.1,-3.8 -0.9,1 -0.7,2.4 -2.8,2.9 -3.9,1 -5.7,-5.9 -6.9,-7.1 -4.8,-4.7 -6.7,-11.4 -3.9,-17.3 2.8,-5.9 9,-4.7 11.4,-1.1 2.4,3.6 1.7,7 3.4,8.3 1.7,1.3 4.8,0.2 5.4,0 0.6,-0.2 1.7,4.3 8,4.1 6.3,-0.2 5.9,-10.7 6.9,-11.6 8.6,-8.4 4.2,-15.9 2.6,-17.6 -1.6,-1.7 1,-3.6 1.5,-3.7 a 13,13 0 0 0 9.4,-7.7 c 0,0 8.4,-0.2 11.4,-6.2 0.8,-1.6 3.3,1.5 8.9,-2.9 a 0.8,0.8 0 0 1 1.4,0.3 c 3.7,8.9 5.2,11.3 4.9,15.8 -0.3,4.5 8.7,21.5 9.4,23.1 0.7,1.6 0.8,3.4 0,4.2 z"
       id="path4885" />
    <path
       class="minerva-base-style"
       d="m 153.8,90 c -4.9,0.2 -10.6,6.2 -12.4,7 -1.8,0.8 -1.3,1.5 -0.2,1.1 1.1,-0.4 5.9,-4.7 10.7,-6.4 4.8,-1.7 3.6,1.8 5,1.6 1.4,-0.2 -0.3,-3.4 -3.1,-3.3 z"
       id="path4887" />
    <path
       class="minerva-base-style"
       d="m 154.9,94.8 c -0.4,0.1 0.4,2.2 -1.7,2.3 -4.6,0.3 -8.3,4.7 -11.1,6 a 12.9,12.9 0 0 1 -3.8,1.4 0.30413813,0.30413813 0 0 0 0.1,0.6 c 11.7,1.6 16.2,1.1 16.3,0.7 0.1,-0.4 -0.6,-1.2 -0.4,-1.7 a 11.3,11.3 0 0 0 0.1,-5.5 c -0.2,-0.8 1.8,-0.3 1.8,-1.3 0,-1 -0.6,-2.6 -1.3,-2.5 z m -1.8,9.3 c -0.2,0.9 -5.5,0.5 -8.3,0.2 -0.7,0 -1.8,-0.1 0.3,-1.4 2.1,-1.3 4.1,-2.8 7.2,-3.4 a 0.8,0.8 0 0 1 0.8,0.6 10.6,10.6 0 0 1 0,4 z"
       id="path4889" />
    <path
       class="minerva-base-style"
       d="m 168.4,120.8 c -0.9,0 -4.5,1.6 -5.9,2.5 -1.4,0.9 -4.4,2.7 -4.2,-0.8 0.1,-1.3 0.9,-4.4 0.9,-5.3 0,-0.9 -1,-0.7 -1.1,0 a 36.9,36.9 0 0 1 -0.7,5.3 c -0.4,1.8 1.2,4 3.6,2.7 2.4,-1.3 4.8,-2.9 7.3,-3.4 0.6,-0.1 0.7,-1 0.1,-1 z"
       id="path4891" />
    <path
       class="minerva-base-style"
       d="m 100.5,133.6 c -0.7,-0.3 -0.5,1.2 -1.4,1 -0.9,-0.2 -0.2,-1.3 -1.8,-3 -1.6,-1.7 -2.8,-1.2 -4.3,-3.6 -1.5,-2.4 -0.3,-12 3.1,-10.8 3.4,1.2 1.6,5 1,8 -0.6,3 2.5,2.8 2.8,2.1 0.3,-0.7 -1.1,-0.9 -1.4,-1.9 -0.3,-1 3.5,-7.6 -1.8,-9.4 -3.8,-1.3 -6.4,3.6 -5.9,8.9 a 8,8 0 0 0 5.1,7.1 c 2.3,0.8 0.6,4 3.7,4 1.4,0 1.7,-2.1 0.9,-2.4 z"
       id="path4893" />
    <path
       class="minerva-base-style"
       d="m 131.3,33.4 c 0.2,0.1 0.3,0 0.5,-0.1 l 6.5,-8.3 a 0.5,0.5 0 0 0 -0.2,-0.6 L 137,24 a 0.4,0.4 0 0 0 -0.5,0.1 l -6.5,8.3 c -0.2,0.2 -0.1,0.5 0.2,0.6 z"
       id="path4895" />
    <path
       class="minerva-base-style"
       d="m 119.2,30 1.1,0.3 a 0.5,0.5 0 0 0 0.5,-0.3 l 3.8,-9.4 A 0.4,0.4 0 0 0 124.3,20 l -1.2,-0.2 h -0.3 l -3.9,9.6 a 0.4,0.4 0 0 0 0.3,0.6 z"
       id="path4897" />
    <path
       class="minerva-base-style"
       d="m 105.8,28.7 h 1.1 c 0.2,0.1 0.4,-0.1 0.4,-0.3 l 1,-10 a 0.5,0.5 0 0 0 -0.4,-0.5 h -1.1 c -0.3,0 -0.4,0.2 -0.5,0.4 l -0.9,10 a 0.4,0.4 0 0 0 0.4,0.4 z"
       id="path4899" />
    <path
       class="minerva-base-style"
       d="m 92.8,29.7 1.1,-0.2 c 0.2,0 0.4,-0.2 0.3,-0.4 l -1.9,-9.9 c 0,-0.2 -0.2,-0.4 -0.4,-0.3 h -1.2 c -0.2,0.1 -0.4,0.3 -0.3,0.5 l 1.9,9.9 c 0,0.3 0.2,0.4 0.5,0.4 z"
       id="path4901" />
    <path
       class="minerva-base-style"
       d="M 79.4,32.8 79.9,33 81,32.6 A 0.4,0.4 0 0 0 81.3,32 l -4.6,-9 a 0.4,0.4 0 0 0 -0.5,-0.2 l -1,0.3 a 0.4,0.4 0 0 0 -0.3,0.6 z"
       id="path4903" />
    <path
       class="minerva-base-style"
       d="m 67,38.5 c 0.1,0.2 0.3,0.2 0.5,0.1 l 1,-0.6 a 0.4,0.4 0 0 0 0.1,-0.6 l -6.7,-7.7 c -0.2,-0.2 -0.4,-0.2 -0.5,-0.1 l -1,0.6 c -0.3,0.1 -0.3,0.4 -0.1,0.6 z"
       id="path4905" />
    <path
       class="minerva-base-style"
       d="m 55.4,46.7 c 0.2,0.1 0.4,0.1 0.5,-0.1 l 0.9,-0.7 a 0.5,0.5 0 0 0 0,-0.7 l -8.5,-5.9 h -0.5 l -0.9,0.8 a 0.5,0.5 0 0 0 0,0.7 z"
       id="path4907" />
    <path
       class="minerva-base-style"
       d="m 45.4,57.1 a 0.4,0.4 0 0 0 0.4,-0.2 L 46.6,56 c 0.2,-0.2 0.1,-0.5 -0.2,-0.6 l -9.8,-3.8 c -0.2,-0.1 -0.4,-0.1 -0.5,0.1 l -0.7,0.9 a 0.4,0.4 0 0 0 0.2,0.7 z"
       id="path4909" />
    <path
       class="minerva-base-style"
       d="m 26.8,67.8 10.5,1.5 c 0.2,0 0.4,-0.1 0.4,-0.3 l 0.6,-1 A 0.4,0.4 0 0 0 38,67.4 L 27.5,65.9 27,66.1 a 5.4,5.4 0 0 1 -0.5,1.1 0.4,0.4 0 0 0 0.3,0.6 z"
       id="path4911" />
    <path
       class="minerva-base-style"
       d="m 21.1,83.7 10.7,-1 a 0.3,0.3 0 0 0 0.3,-0.3 7.6,7.6 0 0 0 0.4,-1.1 0.4,0.4 0 0 0 -0.4,-0.6 l -10.8,1 -0.4,0.3 -0.3,1.2 c 0,0.3 0.2,0.6 0.5,0.5 z"
       id="path4913" />
    <path
       class="minerva-base-style"
       d="m 29.2,96.5 c 0,-0.4 0.1,-0.9 0.1,-1.3 0,-0.4 -0.2,-0.5 -0.5,-0.4 l -10.4,3.6 c -0.2,0.1 -0.3,0.2 -0.3,0.4 0,0.2 -0.1,0.8 -0.1,1.2 a 0.4,0.4 0 0 0 0.6,0.4 l 10.3,-3.6 a 0.3,0.3 0 0 0 0.3,-0.3 z"
       id="path4915" />
    <path
       class="minerva-base-style"
       d="m 28.9,110.8 v -1.3 a 0.5,0.5 0 0 0 -0.7,-0.4 l -9.4,6.3 c -0.2,0 -0.2,0.2 -0.2,0.4 0,0.2 0.1,0.8 0.1,1.2 a 0.5,0.5 0 0 0 0.7,0.3 l 9.4,-6.2 c 0.1,-0.1 0.2,-0.2 0.1,-0.3 z"
       id="path4917" />
    <path
       class="minerva-base-style"
       d="M 31.3,125 31,123.7 a 0.4,0.4 0 0 0 -0.7,-0.2 l -7.7,8.5 c -0.1,0.1 -0.2,0.3 -0.1,0.4 0.1,0.1 0.3,0.8 0.4,1.2 a 0.4,0.4 0 0 0 0.7,0.2 l 7.6,-8.4 c 0.1,-0.1 0.1,-0.2 0.1,-0.4 z"
       id="path4919" />
    <path
       class="minerva-base-style"
       d="M 35.2,137.7 29.8,148 c -0.1,0.1 0,0.3 0,0.4 l 0.7,1.2 a 0.4,0.4 0 0 0 0.7,-0.1 l 5.4,-10.2 c 0,-0.1 0.1,-0.2 0,-0.4 L 36,137.7 a 0.5,0.5 0 0 0 -0.8,0 z"
       id="path4921" />
    <path
       class="minerva-base-style"
       d="m 42.9,149.3 c -0.2,-0.3 -0.7,-0.2 -0.7,0.1 l -2.9,12 c -0.1,0.2 0,0.3 0,0.4 l 1,1 a 0.4,0.4 0 0 0 0.7,-0.1 l 2.8,-11.9 c 0.1,-0.1 0,-0.2 0,-0.3 z"
       id="path4923" />
  </g>
  <rect
     x="366.66599"
     y="1.1830713e-06"
     width="2.6500001"
     height="300"
     style="fill:#666666"
     id="rect4927" />
  <g
     transform="matrix(4.2717277,0,0,4.2717277,435.982,1.1830713e-6)"
     id="g4935">
    <style
       id="style845" />
    <g
       id="g841"
       transform="matrix(1.3333333,0,0,-1.3333333,-60.145965,95.588512)">
      <path
         id="path951"
         style="fill:#007ac2;fill-opacity:1;fill-rule:evenodd;stroke:none;stroke-width:0.0999997"
         d="m 77.016475,39.809688 h -4.983 v 4.955899 h 4.983 z m -7.598,7.5371 V 33.939387 h 13.387 v 13.407401 h -13.387" />
      <path
         id="path953"
         style="fill:#007e73;fill-opacity:1;fill-rule:evenodd;stroke:none;stroke-width:0.0999997"
         d="m 66.368475,62.317586 c 0.339,0.2996 0.508,0.7332 0.508,1.2996 0,0.5382 -0.169,0.9687 -0.508,1.291 -0.339,0.3234 -0.804,0.4902 -1.394,0.5031 h -2.205 v -3.5441 h 2.137 c 0.636,0 1.123,0.1496 1.462,0.4504" />
      <path
         id="path955"
         style="fill:#007e73;fill-opacity:1;fill-rule:evenodd;stroke:none;stroke-width:0.0999997"
         d="m 84.587475,61.628086 v 0.5273 c 0,1.0254 -0.24,1.8219 -0.722,2.3907 -0.481,0.5683 -1.164,0.8574 -2.048,0.8652 h -1.387 v -7.0762 h 1.251 c 0.917,0 1.63,0.2852 2.14,0.8555 0.511,0.5711 0.766,1.3836 0.766,2.4375" />
      <path
         id="path957"
         style="fill:#007e73;fill-opacity:1;fill-rule:evenodd;stroke:none;stroke-width:0.0999997"
         d="m 93.784475,65.411286 h -4.398 v -3.0922 h 3.785 v -0.9723 h -3.785 v -3.9843 h -1.191 v 9.0215 h 5.589 z m -0.603,-41.790998 h -28.364 v 28.3633 h 28.364 z m -30.412,33.742198 h -1.191 v 9.0215 h 3.328 c 0.988,0 1.761,-0.2524 2.321,-0.7559 0.559,-0.5039 0.839,-1.1711 0.839,-2.0012 0,-0.8758 -0.274,-1.5508 -0.821,-2.0234 -0.548,-0.4727 -1.331,-0.709 -2.351,-0.709 h -2.125 z m -3.926,0 h -1.19 v 3.5136 l 0.112,3.7918 -2.962,-7.3054 h -0.91 l -2.957,7.2871 0.119,-3.7735 v -3.5136 h -1.191 v 9.0215 h 1.537 l 2.95,-7.3614 2.949,7.3614 h 1.543 z m 10.939,4.9566 c 0,0.8391 0.15,1.5766 0.449,2.2121 0.3,0.6367 0.724,1.125 1.274,1.466 0.549,0.3407 1.185,0.5106 1.908,0.5106 0.959,0 1.727,-0.2676 2.306,-0.8016 0.578,-0.5351 0.914,-1.2765 1.009,-2.2219 h -1.196 c -0.103,0.7208 -0.327,1.243 -0.672,1.5665 -0.344,0.3234 -0.827,0.4843 -1.447,0.4843 -0.76,0 -1.355,-0.2812 -1.787,-0.8437 -0.432,-0.5613 -0.648,-1.3621 -0.648,-2.3992 v -0.875 c 0,-0.9797 0.205,-1.759 0.614,-2.3379 0.409,-0.5782 0.98,-0.8684 1.716,-0.8684 0.661,0 1.168,0.1504 1.521,0.4492 0.354,0.3 0.588,0.8215 0.703,1.5645 h 1.196 c -0.111,-0.9539 -0.463,-1.6903 -1.056,-2.209 -0.593,-0.5184 -1.381,-0.7773 -2.364,-0.7773 -1.066,0 -1.92,0.382 -2.562,1.1464 -0.643,0.7637 -0.964,1.7864 -0.964,3.0676 z m 9.457,4.0649 h 2.547 c 0.785,0 1.479,-0.1731 2.082,-0.5207 0.604,-0.3465 1.069,-0.8399 1.398,-1.4805 0.328,-0.6406 0.494,-1.3762 0.499,-2.2059 v -0.5761 c 0,-0.8508 -0.165,-1.5969 -0.494,-2.2375 -0.328,-0.6395 -0.796,-1.1317 -1.406,-1.4747 -0.609,-0.3425 -1.319,-0.5183 -2.129,-0.5261 h -2.497 z m -34.13,5.3074 V 19.019488 h 52.671 v 52.671898 h -52.671" />
    </g>
  </g>
</svg>
