<?xml version="1.0" encoding="utf-8"?>
<!-- Generator: Adobe Illustrator 27.5.0, SVG Export Plug-In . SVG Version: 6.00 Build 0)  -->
<svg version="1.1" id="Layer_1" xmlns="http://www.w3.org/2000/svg" xmlns:xlink="http://www.w3.org/1999/xlink" x="0px" y="0px"
	 viewBox="0 0 750 636" style="enable-background:new 0 0 750 636;" xml:space="preserve">
<style type="text/css">
	.st0{fill:#192E86;stroke:#192E86;stroke-width:25.5986;stroke-miterlimit:10;}
	.st1{fill:#2A4CDF;stroke:#2A4CDF;stroke-width:25.5986;stroke-miterlimit:10;}
	.st2{fill:#2A4CDF;}
</style>
<path class="st0" d="M479.2,189.2c40.3,0,73-32.7,73-73s-32.7-73-73-73c-40.3,0-73,32.7-73,73S438.9,189.2,479.2,189.2z"/>
<path class="st1" d="M530.7,272.4c-28.4-28.4-74.5-28.4-103.2,0c-26.6,26.6-69.1,28.4-97.5,4.9c-1.8-2-3.6-4.4-5.6-6.4
	c-28.4-28.4-28.4-74.5,0-103.2c28.4-28.4,28.4-74.5,0-103.2c-28.4-28.7-74.5-28.4-103.2,0c-28.7,28.4-28.4,74.5,0,103.2
	c28.4,28.4,28.4,74.5,0,103.2c-16.9,16.9-23.8,40.2-20.5,62.2c2,15.4,9,30.5,20.7,42.2c28.4,28.4,74.5,28.4,103.2,0
	c28.7-28.4,74.5-28.4,103.2,0c28.7,28.4,74.5,28.4,103.2,0C559.6,346.9,559.1,300.8,530.7,272.4z"/>
<path class="st2" d="M23.3,589.6c0-23,0-46.1,0-69.6s0-46.6,0-69.6c5.9,0,12,0,18.2,0s12,0,17.9,0c7.2,13.1,14.6,26.1,22,39.4
	c7.4,13.3,14.8,26.4,22,39.4c0-13.1,0-26.1,0-39.4c0-13.3,0-26.4,0-39.4c5.9,0,11.8,0,17.7,0c5.9,0,11.8,0,17.7,0
	c0,23,0,46.1,0,69.6s0,46.6,0,69.6c-5.9,0-11.8,0-17.9,0c-6.1,0-12,0-18.2,0c-7.2-13.1-14.6-26.1-22-39.4
	c-7.4-13.3-14.8-26.4-22-39.4c0,13.1,0,26.1,0,39.4c0,13.3,0,26.4,0,39.4c-5.9,0-11.8,0-17.7,0S29.2,589.6,23.3,589.6z"/>
<path class="st2" d="M220.9,592.9c-10,0-19.2-1.8-27.6-5.4c-8.4-3.6-15.9-8.7-22-15.4c-6.1-6.7-11-14.3-14.3-23.3
	c-3.3-9-5.1-18.7-5.1-29.2c0-10.5,1.8-20.2,5.1-29.2c3.3-9,8.2-16.6,14.3-23s13.6-11.5,22-15.1c8.4-3.6,17.7-5.4,27.6-5.4
	c10,0,19.2,1.8,27.6,5.4c8.4,3.6,15.6,8.7,22,15.1c6.1,6.4,11,14.1,14.3,23c3.3,9,5.1,18.7,5.1,29.2c0,10.5-1.8,20.2-5.1,29.2
	c-3.3,9-8.2,16.6-14.3,23.3c-6.1,6.7-13.6,11.5-22,15.4C239.9,591.1,230.9,592.9,220.9,592.9z M220.9,559.6c6.7,0,12.5-1.8,17.2-5.1
	c4.9-3.3,8.4-7.9,11.3-14.1c2.6-5.9,4.1-13.1,4.1-21c0-7.9-1.3-14.8-4.1-20.7c-2.8-5.9-6.4-10.5-11.3-13.8
	c-4.9-3.3-10.5-5.1-17.2-5.1c-6.7,0-12.3,1.5-17.2,4.9c-4.9,3.3-8.7,7.9-11.3,13.8s-4.1,12.8-4.1,20.7c0,7.9,1.3,14.8,4.1,21
	c2.6,5.9,6.4,10.8,11.3,14.1C208.6,558.1,214.3,559.6,220.9,559.6z"/>
<path class="st2" d="M302.8,589.6c0-23,0-46.1,0-69.6s0-46.6,0-69.6c8.4,0,16.9,0,25.6,0s17.2,0,25.6,0c3.8,13.8,7.9,27.9,11.8,42.2
	c3.8,14.3,7.7,28.4,11.5,42.2c3.8-13.8,7.7-27.9,11.5-42.2c3.8-14.3,7.7-28.4,11.5-42.2c8.4,0,16.9,0,25.3,0c8.4,0,16.9,0,25.1,0
	c0.3,23,0.3,46.1,0.5,69.6s0.3,46.6,0.5,69.6c-5.6,0-11.5,0-17.4,0c-5.9,0-11.5,0-17.4,0c0-15.6,0-31.2,0-47.1c0-15.9,0-31.7,0-47.1
	c-4.1,15.6-8.2,31.2-12.5,47.1c-4.4,15.9-8.4,31.7-12.5,47.1c-5.1,0-10.2,0-15.4,0c-5.4,0-10.5,0-15.6,0
	c-4.1-15.4-8.2-30.7-12.3-46.3c-4.1-15.6-8.2-31-12.3-46.3c0,15.4,0,30.7,0,46.3s0,31,0,46.3c-5.4,0-11,0-16.9,0
	C314.1,589.6,308.5,589.6,302.8,589.6z"/>
<path class="st2" d="M465.4,589.6c7.2-23,14.3-46.1,21.5-69.6c7.2-23.6,14.3-46.6,21.5-69.6c7.9,0,16.1,0,24.6,0s16.4,0,24.6,0
	c7.2,23,14.3,46.1,21.5,69.6c7.2,23.6,14.3,46.6,21.5,69.6c-5.9,0-11.8,0-17.9,0c-6.1,0-12,0-18.2,0c-1.3-4.4-2.6-8.7-3.8-13.3
	c-1.3-4.4-2.6-9-3.8-13.3c-7.7,0-15.6,0-23.6,0s-15.6,0-23.6,0c-1.3,4.4-2.6,8.7-3.8,13.3c-1.3,4.4-2.6,9-3.8,13.3
	c-5.9,0-11.8,0-17.9,0C477.4,589.6,471.3,589.6,465.4,589.6z M518.1,532.7c4.9,0,9.5,0,14.3,0c4.9,0,9.7,0,14.3,0
	c-2.3-7.9-4.6-16.1-7.2-24.3s-4.9-16.4-7.2-24.3c-2.3,7.9-4.9,16.1-7.2,24.3C523,516.3,520.4,524.5,518.1,532.7z"/>
<path class="st2" d="M615.1,589.6c0-23,0-46.1,0-69.6s0-46.6,0-69.6c8.2,0,16.4,0,24.8,0s16.6,0,24.8,0c10,0,19.5,1.8,27.9,5.1
	c8.4,3.6,15.9,8.5,22,14.6c6.4,6.4,11.3,13.6,14.6,22c3.6,8.4,5.1,17.7,5.1,27.6s-1.8,19.2-5.1,27.6c-3.6,8.4-8.4,15.9-14.6,22.3
	c-6.4,6.4-13.6,11.3-22,14.8c-8.4,3.6-17.7,5.1-27.9,5.1c-8.2,0-16.4,0-24.8,0C631.8,589.6,623.3,589.6,615.1,589.6z M664.8,482.6
	c-2.3,0-4.4,0-6.7,0c-2.3,0-4.6,0-6.9,0c0,12.3,0,24.8,0,37.4c0,12.5,0,25.1,0,37.4c2.3,0,4.6,0,6.9,0c2.3,0,4.6,0,6.7,0
	c6.9,0,12.8-1.5,17.9-4.9c5.1-3.3,9-7.7,11.8-13.3c2.8-5.6,4.1-12,4.1-19.2s-1.3-13.6-4.1-18.9c-2.8-5.6-6.7-10-11.8-13.3
	C677.6,484.3,671.7,482.6,664.8,482.6z"/>
</svg>
