<?xml version="1.0" encoding="UTF-8" standalone="no"?>
<svg
   width="217"
   height="223"
   viewBox="0 0 217 223"
   fill="none"
   version="1.1"
   id="svg1107"
   xmlns="http://www.w3.org/2000/svg"
   xmlns:svg="http://www.w3.org/2000/svg">
  <defs
     id="defs1111" />
  <path
     d="m 22.042,45.0109 c 21.3625,21.2757 55.976,21.2757 77.5192,0 C 119.558,25.08 151.502,23.7352 172.864,41.378 c 1.345,1.5254 2.69,3.2516 4.236,4.7971 21.363,21.2756 21.363,55.7989 0,77.2549 -21.362,21.276 -21.362,55.798 0,77.255 21.363,21.456 55.976,21.275 77.52,0 21.543,-21.276 21.362,-55.799 0,-77.255 -21.363,-21.276 -21.363,-55.7986 0,-77.2549 12.689,-12.645 17.889,-30.1071 15.399,-46.58576 -1.546,-11.50094 -6.726,-22.82114 -15.58,-31.63254 -21.363,-21.2756 -55.976,-21.2756 -77.519,0 -21.363,21.2757 -55.976,21.2757 -77.5194,0 -21.3625,-21.2756 -55.9761,-21.2756 -77.5192,0 C 0.679565,-10.7876 0.679596,23.7352 22.042,45.0109 Z"
     fill="#2a4cdf"
     stroke="#2a4cdf"
     stroke-width="12"
     stroke-miterlimit="10"
     id="path1105" />
  <path
     d="m 51.995212,222.73013 c 28.3591,0 51.358398,-22.9999 51.358398,-51.3584 0,-28.3586 -22.999298,-51.35859 -51.358398,-51.35859 -28.3591,0 -51.358602,22.99999 -51.358602,51.35859 0,28.3585 22.999502,51.3584 51.358602,51.3584 z"
     fill="#192e86"
     fill-opacity="0.35"
     id="path1937" />
</svg>
